<?xml version="1.0" standalone="no"?>
<!DOCTYPE svg PUBLIC "-//W3C//DTD SVG 1.1//EN" "http://www.w3.org/Graphics/SVG/1.1/DTD/svg11.dtd" >
<svg>
<metadata>
Created by FontForge 20090914 at Thu Feb 23 22:37:19 2012
 By root
Copyright 1988 - 1991; Berkeley Fonts, All rights reserved
</metadata>
<defs>
<font id="DevanagariNormal" horiz-adv-x="29" >
  <font-face 
    font-family="Devanagari New"
    font-weight="400"
    font-stretch="normal"
    units-per-em="2048"
    panose-1="2 11 5 0 0 0 0 0 0 0"
    ascent="1638"
    descent="-410"
    x-height="1720"
    cap-height="2413"
    bbox="-1855 -913 2443 3226"
    underline-thickness="116"
    underline-position="57"
    unicode-range="U+0020-U+2212"
  />
<missing-glyph horiz-adv-x="2605" 
d="M162 0v2605h2281v-2605h-2281zM2281 162v2281h-1957v-2281h1957z" />
    <glyph glyph-name=".notdef" horiz-adv-x="2605" 
d="M162 0v2605h2281v-2605h-2281zM2281 162v2281h-1957v-2281h1957z" />
    <glyph glyph-name=".null" horiz-adv-x="0" 
 />
    <glyph glyph-name="nonmarkingreturn" horiz-adv-x="1077" 
 />
    <glyph glyph-name="space" unicode=" " horiz-adv-x="1077" 
 />
    <glyph glyph-name="exclam" unicode="!" horiz-adv-x="1411" 
d="M133 995l53 129l84 93l99 59l127 41l147 18l154 -6l116 -12l70 -25v211h-971v217h1317v-217h-131v-327l-20 -76h-129l-123 30l-113 23l-141 6l-115 -29l-94 -43l-76 -73l-49 -90l-23 -111l7 -145l16 -99l37 -77l57 -78l82 -68l135 -43h119l74 12l-76 72l-53 64l-29 53
l-12 86l20 96l56 74l65 37l111 16l88 -29l71 -43l58 -41l47 -57l35 -80l16 -90l-16 -67l-31 -72l-57 -72l-82 -51l-146 -47l-141 -6l-139 30l-111 54l-88 61l-90 84l-88 98l-64 111l-51 111l-22 157zM907 686l-47 -37l-37 -47l-20 -76l20 -75l37 -70l47 -47l60 24l63 29
l57 41l37 64l17 71l-4 68l-31 37l-57 32l-82 7z" />
    <glyph glyph-name="quotedbl" unicode="&#x22;" horiz-adv-x="727" 
d="M365 1368v-45l133 -154l-133 -151v-45h-37v45l-133 151l133 154v45h37zM365 707v-45l133 -154l-133 -152l4 -45h-41v45l-133 152l133 154v45h37z" />
    <glyph glyph-name="numbersign" unicode="#" horiz-adv-x="1456" 
d="M0 1720h1450v-217h-477l69 -47l39 -67l15 -101l-43 -78l-64 -80l-112 -88l122 -47l107 -43l117 -69l63 -58l47 -69l25 -90v-80l-25 -78l-39 -70l-61 -82l-68 -53l-90 -53l-162 -57l-147 -23l-170 29l-152 57l-141 100l-133 140l-78 131l-10 123l24 114l62 78l53 45l94 43
l76 25l76 20l94 12l160 23l92 68l76 98v92l-45 88l-94 47h-750v217zM618 926l-126 -29l-95 -68l-45 -79l-14 -111l31 -123l69 -90l70 -68l110 -47l103 -8l110 8l105 47l84 58l55 80l31 77l16 89l-26 100l-37 51l-72 59l-110 54l-140 12z" />
    <glyph glyph-name="dollar" unicode="$" horiz-adv-x="1348" 
d="M-10 1720h1362v-217h-398v-442l-43 -43l-180 2l-151 -12l-119 -41l-92 -70l-60 -78l-18 -119l26 -131l80 -90l72 -47l98 -39l129 -12l168 33l142 71l110 88l88 -94l90 -88l-77 -57l-87 -43l-102 -51l-127 -29l-133 -6l-129 6l-137 53l-127 82l-125 115l-86 102l-58 121
l-12 129l29 105l47 69l66 72l69 53l92 53l119 29l105 -2h120v311h-751v217z" />
    <glyph glyph-name="percent" unicode="%" horiz-adv-x="1991" 
d="M4 1720h1978v-217h-133v-1499h-82l-133 131v508l-61 -74l-53 -41l-52 -24l-65 -25h-80l-66 17l-79 26l-72 51l-64 60l-55 63l-45 78l-18 96v68l8 86l33 70l53 65l84 47l131 33h115l96 -35l78 -57l112 -117v473l-891 -4v-481l-10 -88l-24 -51l-37 -48l-54 -28l-96 -21
l-71 2l-35 -28l-10 -37l10 -47l45 -74l53 -61l64 -70l67 -57l80 -70l57 -43l66 -47l53 -39l57 -31l82 -47l82 -29v-45l-139 52l-100 36l-111 58l-100 57l-127 78l-105 70l-71 63l-72 64l-55 55l-37 57l-35 51l-18 41l-17 50l-8 51v47l18 63l35 37l43 29l68 6l61 -29l45 -34
l54 -23l63 29l18 63v473h-528v217zM1403 1102h-103l-102 -37l-63 -41l-39 -51l-35 -62l-8 -86l8 -57l51 -76l53 -37l86 -28h88l70 28l66 45l36 33l64 64l59 86v84l-53 51l-70 47z" />
    <glyph glyph-name="ampersand" unicode="&#x26;" horiz-adv-x="1563" 
d="M-12 1720h1581v-217l-139 -4v-1495h-82l-129 131v621h-258l73 -37l37 -53l19 -68l-9 -84l-34 -92l-68 -76l-72 -49l-88 -35l-92 -35l-106 -22h-123l10 -35l31 -43l53 -57l47 -41l80 -45l63 -35l74 -35l74 -27l94 -22l-53 -92l-88 34l-92 46l-72 41l-74 49l-76 63l-37 51
l-45 56l-30 47l-41 51l-64 6l-65 23l-78 34l-62 58l-36 61v80l18 55l72 29h80l77 -35l56 -49l43 -63l92 -23h96l117 23l102 41l72 57l43 61l4 74l-31 64l-55 41l-68 8l-45 -23l-53 -33l-65 -28l-80 -23l-107 6l-65 23l-56 22l-49 33l-63 51l-58 76l-43 78l-28 98v101l30 86
l68 57l82 41l84 14h104l93 -14l88 -29l84 -12v223h-762v217zM954 1499v-393l-170 -4l-71 20l-64 21l-92 28l-78 7l-82 -13l-57 -22l-49 -49l-29 -76l8 -100l29 -58l53 -35l70 -6l100 29l137 57l166 13l394 -5l-2 586h-263z" />
    <glyph glyph-name="quotesingle" unicode="'" 
d="M-223 2505v-72l131 -156l-131 -147v-64h-39v64l-131 147l131 156v72h39z" />
    <glyph glyph-name="parenleft" unicode="(" 
d="M-492 -47l134 -4l75 -27l56 -41l59 -67l70 -72l67 -74l90 -82l88 -73l68 -50l76 -47l71 -41l44 -2v-35l-72 11l-78 30l-57 35l-66 35l-70 47l-67 43l-55 47l-58 49l-59 50l-51 47l-76 51l-47 6l-88 -29l-82 4l-37 25l-29 51l6 47l23 41z" />
    <glyph glyph-name="parenright" unicode=")" horiz-adv-x="1348" 
d="M-10 1720h1362v-217h-133v-1499h-82l-131 141v394l-74 -84l-66 -64l-92 -53l-37 -21h-133l-76 21l-88 47l-53 47l-65 53l-60 76l-47 66l-51 75l-41 86l-29 76l-16 62l67 -2l48 -47l69 -21l125 21l92 41l58 40l43 54l18 41l10 53v45h-618v129h743v-209l-6 -59l-14 -82
l-39 -66l-56 -49l-73 -41l-78 -24l-88 -17l-80 10l47 -69l60 -60l51 -41l80 -41l77 -12l93 12l67 29l68 47l59 60l53 65l52 105v665h-1016v217z" />
    <glyph glyph-name="asterisk" unicode="*" 
d="M-240 -88h82v-117l-47 -51l-71 -37l-68 -18l-72 -13h-112l-45 -22l-29 -35l-2 -57l8 -47l18 -43l46 -50l65 -43l61 -24l68 -14h55l66 14l49 20l33 27l37 35l28 35l33 43l25 41l16 38l21 54l170 -133l-50 -64l-47 -49l-61 -53l-66 -49l-77 -41l-93 -31l-77 -2l-89 14
l-61 23l-61 30l-80 58l-60 57l-51 53l-35 43l-35 52l-26 59l-8 47l22 41l58 29l133 47l61 -43l102 -4l101 26l65 43v111z" />
    <glyph glyph-name="plus" unicode="+" horiz-adv-x="1212" 
d="M426 1720l123 -4l90 -30l47 -35l47 -35l41 -53l23 -54l18 -47l10 -53v-41l-12 -53l-29 -49l-41 -60l-59 -65l-70 -70l29 -12h526v-174h-346l-69 33l-76 34l-64 31l-53 29l-51 -47l-49 -47l-41 -48l-51 -55l-37 -47l-29 -47l-22 -53l-11 -82l11 -47l22 -54l37 -39l47 -26
l35 -21l57 -14h47l54 6l38 29l-32 35l-25 37l-12 40v48l12 47l43 47l45 28l58 13l77 -19l41 -34l35 -44l12 -63l-6 -53l-18 -56l-41 -55l-33 -39l320 -348h-111l-264 295l-41 -23l-47 -24l-53 -16l-68 -13l-78 6l-63 23l-52 24l-43 29l-45 39l-34 41l-31 41l-31 66l-20 57
l-13 72v75l23 78l29 55l43 68l55 61l61 62l51 45l48 41l-60 47l-41 35l-47 53l-39 66l-30 98v82l30 69l39 54l55 53l52 35zM911 1720h301v-217h-170l-131 131v86zM469 1587l-49 -31l-41 -47l-17 -47v-73l19 -62l33 -53l47 -49l49 -37l47 24l51 48l58 55l34 53l27 47l16 53
l-16 54l-20 41l-39 28l-47 19l-41 6l-52 -6z" />
    <glyph glyph-name="comma" unicode="," horiz-adv-x="1534" 
d="M-41 1720h1581v-217h-131v-1499h-82l-133 131v1368l-317 -4v-604l-13 -82l-26 -59l-35 -70l-62 -66l-61 -45l-84 -36l-98 -17l-111 12l-96 35l-70 47l-63 66l-31 61l-23 82l-12 103v577h-133v217zM303 1499v-588l8 -80l23 -59l51 -41l76 -16l55 6l53 20l56 50l24 38
l17 60v610h-363z" />
    <glyph glyph-name="hyphen" unicode="-" horiz-adv-x="543" 
d="M164 1724l82 -4l129 -133v-1583h-82l-129 131v1589z" />
    <glyph glyph-name="period" unicode="." horiz-adv-x="1399" 
d="M-6 1720h217l309 -309v-485h533v577h-265l-133 131v86h744v-217h-133v-1499h-82l-131 131v619h-533v-222h-174l-219 222v172h176v444l-133 133h-176v217z" />
    <glyph glyph-name="slash" unicode="/" horiz-adv-x="1587" 
d="M-12 1720h393l176 -217h-43l-63 -24l-66 -52l-45 -51l-12 -49l10 -61l35 -49l53 -25l59 -10l78 12l58 23l45 28l49 35l192 -219h-88l-100 -25l-86 -35l-70 -43l-49 -61l-35 -55l-12 -74l12 -55l31 -58l53 -59l51 -35l119 -29h45l94 19l89 45l75 49l60 45l61 66l35 63
l31 123v561h-222l-176 217h744v-217h-131v-1499h-82l-133 148v403l-41 -39l-47 -29l-54 -36l-61 -29l-109 -29l-98 -14l-100 14l-82 29l-70 39l-69 41l-58 43l-53 51l-35 43l-31 51l-22 51l-12 50v73l22 72l29 51l41 49l96 74l-72 14l-65 6l-74 23l-72 35l-47 37l-35 51
l-10 51l12 55l35 52l45 36l70 29l-268 4v217z" />
    <glyph glyph-name="zero" unicode="0" horiz-adv-x="1292" 
d="M719 1352l90 -11l92 -26l82 -39l66 -66l57 -67l31 -90l14 -88l-4 -105l-23 -98l-53 -103l-72 -98l-114 -88l-107 -53l-133 -23h-106l-133 31l-119 74l-86 96l-56 127l-10 135l10 111l48 112l81 105l91 65l108 54l107 34zM639 1178l-111 -48l-88 -61l-82 -90l-34 -113
v-104l32 -82l90 -88l111 -31l129 17l92 49l82 69l66 88l41 82l16 113l-22 82l-41 57l-78 47l-99 23z" />
    <glyph glyph-name="one" unicode="1" horiz-adv-x="1135" 
d="M475 1649l143 -7l115 -28l90 -53l72 -76l41 -88l25 -111l4 -135l-19 -121l-35 -119l-47 -104l-51 -98l-47 -105l-41 -82l-41 -88l-35 -59l-22 -76l12 -57l41 -60l53 -47l49 -43h-155l-82 21l-60 47l-34 67l-7 49l11 82l24 82l47 92l41 72l47 98l54 113l32 90l-26 37h-113
l-86 12l-65 25l-64 35l-59 55l-64 66l-41 82l-24 81v76l16 96l25 46l41 51l47 37l82 30zM467 1516l-57 -17l-48 -29l-30 -53l-10 -65l16 -92l35 -60l71 -57l76 -25l58 -6h81l62 16l41 43l20 62l9 59v66l-25 65l-33 47l-43 29l-51 17l-55 6h-68z" />
    <glyph glyph-name="two" unicode="2" horiz-adv-x="1399" 
d="M610 1642l82 -16l90 -22l74 -37l74 -35l49 -39l49 -43l59 -76l37 -76l35 -73l17 -74l8 -68v-59l-15 -76l-18 -65l-39 -60l-41 -61l-59 -60l-47 -36l-41 -39l-70 -43l-51 -33l442 -504h-151l-394 432h-26l-88 -6l-58 6l-71 8l-66 29l-45 27l-41 35l-47 49l-25 47l-12 51
v76l29 49l47 33l59 14l66 14l57 -22l49 -23l68 -41l35 -37l35 -47l43 -16l73 8l74 29l90 67l43 68l31 90l10 66v104l-18 103l-33 69l-53 64l-54 30l-88 39l-100 17l-92 -9l-55 -14l-76 -18l-70 -33l-67 -35l-177 217l111 27l115 20l106 8h131z" />
    <glyph glyph-name="three" unicode="3" horiz-adv-x="1481" 
d="M555 1686l141 16l113 -16l127 -44l78 -55l76 -49l47 -59l45 -68l22 -70l2 -55l-14 -76l-29 -59l-51 -45l-63 -37l73 -33l66 -49l51 -45l35 -45l31 -53l16 -66l8 -59l-8 -68l-33 -73l-49 -68l-51 -47l-66 -35l-88 -37l-67 -22l-82 -23l-84 -8l-94 8l311 -342h-141
l-345 342l-59 12l-57 17l-72 31l-57 28l-37 45l-29 60v59l21 64l45 45l78 18l92 -29l59 -59l41 -68l39 -53l41 -31l65 -12l82 6l93 23l96 37l69 39l58 43l30 45l23 53l10 65l-16 66l-35 70l-37 34l-41 33l-51 27l-51 16l-78 -16l-51 -13l-66 -14l-65 -16l-74 -29l-152 176
h250l99 25l75 35l54 39l41 36l28 54l6 61l-6 55l-28 56l-41 43l-47 22l-68 23h-66l-77 -6l-103 -29l-59 -33l-70 -35l-78 -43l-59 -51l-158 168l78 37l98 45l123 43z" />
    <glyph glyph-name="four" unicode="4" horiz-adv-x="1614" 
d="M1071 1720l66 -24l63 -33l76 -43l47 -39l51 -43l35 -59l14 -56l11 -65v-51l-13 -47l-28 -50l-35 -53l-72 -67l-45 -37l-63 -52l-66 -36l-59 -45l-76 -35l-64 -35l-65 -27l-45 -26l-43 -29l-53 -35l-64 -37l-57 -45l-58 -37l-43 -45l-47 -59l-35 -53l-24 -76v-66l24 -45
l66 -59l123 -29l117 -8l98 2l76 12l96 23l98 45l86 43l62 70l26 59l9 45l-13 59l-14 52l-49 53l-33 37l-57 28l-52 39l-41 27l216 104l65 -49l51 -55l41 -49l35 -68l25 -53l16 -76v-88l-20 -59l-21 -51l-29 -54l-28 -43l-66 -67l-69 -54l-66 -36l-80 -29l-82 -31l-92 -6
h-115l-67 6l-64 8l-67 23l-80 29l-60 30l-65 45l-47 37l-51 51l-41 66l-25 70l-6 88l8 75l33 82l31 60l57 59l59 49l47 41l58 37l67 29l-141 31l-90 45l-80 65l-43 66l-41 82l-16 108l24 117l35 90l53 74l70 67l244 -155l-80 -29l-41 -33l-43 -43l-41 -45l-17 -47l-12 -35
l6 -53l31 -82l41 -51l76 -60l80 -30h82l125 53l122 66l101 61l98 74l80 67l53 82l15 60l-3 59l-28 45l-37 35l-55 24l-66 37v86z" />
    <glyph glyph-name="five" unicode="5" horiz-adv-x="1456" 
d="M246 1655l217 -109l-47 -59l-37 -66l-29 -65l-18 -115l12 -76l14 -55l41 -61l58 -41l63 -25h135l86 25l78 34l51 58l41 106l35 150l15 114v68l182 -108l-6 -74l-19 -82l-22 -98l-27 -101l-35 -92l-39 -98l-41 -90l-57 -133l-55 -107l-68 -117l123 -88l121 -117l100 -100
l115 -108l67 -66l-118 -72l-107 117l-114 113l-119 106l-121 92l-37 -73l-51 -49l-47 -35l-66 -25l-63 -6l-76 31l-31 35l-28 40l-7 41l-12 50l12 67l23 55l27 41l41 35l86 41h77l52 -8l51 76l41 71l43 86l41 82l-154 -34l-92 8l-100 33l-78 49l-64 57l-57 76l-43 76l-27 98
l-14 106v101l14 82l29 82z" />
    <glyph glyph-name="six" unicode="6" horiz-adv-x="1456" 
d="M999 358l226 -354h-142l-219 330l-123 -6l-86 10l-86 8l-82 23l-65 22l-88 37l-66 35l-51 47l-49 68l-33 73l-8 68l8 59l17 66l30 53l35 45l51 45l66 49l72 33l-62 37l-51 45l-29 59l-14 76l2 55l22 70l43 68l48 59l75 49l80 55l125 44l115 16l141 -16l117 -23l123 -43
l98 -45l78 -37l-158 -168l-59 51l-80 43l-68 35l-61 33l-100 29l-78 6h-68l-65 -23l-48 -22l-40 -43l-29 -56l-6 -55l6 -61l29 -54l40 -36l54 -39l76 -35l98 -25h248l-152 -176l-72 29l-65 16l-68 14l-49 13l-80 16l-49 -16l-51 -27l-41 -33l-37 -34l-39 -70l-12 -66l10 -65
l21 -53l32 -45l58 -43l67 -39l99 -37l92 -23l82 -6l69 6l37 43l45 68l33 59l61 47l91 29l79 -18l43 -45l23 -64v-59l-29 -60l-37 -45l-57 -28l-65 -25z" />
    <glyph glyph-name="seven" unicode="7" horiz-adv-x="1724" 
d="M170 1645l76 24v-100l4 -131l6 -111l12 -121l29 -116l47 -152l53 -125l58 -98l61 -78l86 -82l131 -86l131 -37h142l96 31l67 33l60 41l59 73l35 62l23 65l6 70v65l-29 -41l-70 -43l-125 -26l-122 20l-93 41l-57 41l-68 84l-34 66l-29 76l-6 75v76l6 92l29 76l34 49l50 45
l75 47l105 19l139 -8l96 -41l76 -35l64 -58l47 -59l45 -76l35 -92l32 -186v-158l-8 -108l-24 -111l-29 -82l-35 -76l-41 -59l-51 -68l-76 -76l-96 -59l-57 -24l-140 -25l-186 12l-102 37l-121 59l-82 68l-84 100l-62 93l-67 125l-51 126l-47 177l-23 116l-12 144l-6 116v111
l6 109zM936 1327l-45 -45l-25 -57l-2 -68l8 -61l29 -47l35 -35l47 -25l76 -16l119 26l82 56l28 61l6 90l-20 76l-62 59l-61 27l-70 8l-80 -8z" />
    <glyph glyph-name="eight" unicode="8" horiz-adv-x="1534" 
d="M180 1720h1141v-217h-588l-82 -51l-88 -55l-61 -49l-45 -37l-29 -37l-22 -49l-7 -41l7 -37l14 -29l20 -18l33 -6l47 6l60 10l79 14l119 19l101 14l120 8h70l131 -35l70 -49l53 -57l6 -76l-8 -53l-27 -57l-53 -56l-47 -41l-51 -28l-53 -4h-72l63 53l37 51l19 35l6 35
l-27 30l-41 19h-92l-104 -8l-131 -27l-164 -25l-115 -2l-111 9l-65 34l-41 39l-43 62l-21 96l11 72l16 59l35 64l43 53l65 53l58 39l88 53h-324v217z" />
    <glyph glyph-name="nine" unicode="9" horiz-adv-x="1505" 
d="M1030 201l-608 618l-57 66l-50 69l-34 58l-39 69l-25 82l-18 94l6 99l10 74l27 73l49 60l33 39l55 36l67 35l93 23l129 24l127 -16l106 -37l70 -39l49 -49l49 -53l37 -62l24 -71l17 -54v-82l-17 -65l-40 -90l-70 -74l-90 -61l-94 -43l-86 -29l-72 -18v-74l516 -563
l82 -123l24 -82l5 -72l-11 -90l-34 -68l-35 -34l-95 -17l-59 17l-35 28l-41 54l-12 65l16 59l37 58l64 59v10zM621 1487l-82 -29l-70 -43l-49 -67l-23 -91l6 -81l29 -60l41 -35l72 -16h76l81 22l64 23l43 31l41 28l41 43l22 54l5 57l-21 53l-41 45l-47 37l-59 29h-129z" />
    <glyph glyph-name="colon" unicode=":" horiz-adv-x="1812" 
d="M1651 1036q22 -25 39 -59q6 -20 8 -28q6 -26 6 -48v-22v-23q-3 -11 -4 -15l-4 -28q-2 -10 -4 -18t-7 -20l-12 -38l-20 -44l-15 -31l-51 -66l-59 -57l-60 -35l-65 -25h-80l-66 17l-79 26l-72 51l-64 60l-55 63l-45 78l-18 96v68l8 86l33 70l53 65l84 47l131 33h115l96 -35
l78 -57l65 -53zM4 1720l1733 4v-225h-994v-475l-10 -94l-24 -51l-37 -48l-54 -28l-96 -21l-71 2l-35 -28l-10 -37l10 -47l45 -74l53 -61l64 -70l65 -61l82 -66l57 -43l66 -47l53 -39l57 -31l82 -47l82 -29v-45l-139 52l-100 36l-111 58l-100 57l-127 78l-105 70l-71 63
l-72 64l-55 55l-37 57l-35 51l-18 41l-17 50l-8 51v47l18 63l35 37l43 29l68 6l61 -29l45 -34l54 -23l63 29l18 63v473h-528v217zM1403 1102h-103l-102 -37l-63 -41l-39 -51l-35 -62l-8 -86l8 -63l51 -70l53 -37l86 -28h88l70 28l66 35l63 58l55 65l41 70l4 82l-57 53
l-70 47z" />
    <glyph glyph-name="semicolon" unicode=";" horiz-adv-x="1669" 
d="M-4 1720h1671v-217l-502 -4v-346l-774 -2v-225l25 -47l39 -37l55 28l53 21l62 39l53 18l88 23h154l81 -23l54 -41l45 -30l47 -52l35 -30l37 -62l26 -59l25 -72l4 -129l-21 -80l-24 -61l-60 -70l-69 -76l-51 -39l-48 -28l-40 -27l-76 -29l-54 -22l-118 -4l-92 33l-58 49
l-61 55l-64 62l-57 63l-49 66l-45 57l-35 45l-47 65l-29 35l-49 58l-39 59l-2 66l82 -82l68 -76l75 -72l68 -63l76 -64l53 -37l47 -32l59 -37l37 -25l90 -10l95 12l69 35l84 63l66 66l35 59l16 80l-4 88l-8 37l-29 41l-25 35l-53 23l-61 -7l-54 -30l-49 -29l-35 -16l-55 -25
l-37 -16l-141 4l-76 18l-53 43l-39 23l-59 59l-54 51l-38 41l-41 58l-25 94v151l31 56l55 39l68 22h614v172l-942 4v217zM1446 1192v-45l133 -133v-84l-133 -133v-43h-37v43l-133 133v84l133 133v45h37z" />
    <glyph glyph-name="less" unicode="&#x3c;" horiz-adv-x="1053" 
d="M10 1720h1051v-217l-135 -4v-551l-15 -82l-32 -59l-48 -59l-63 -58l-59 -45l-60 -35l-80 -24l-88 -13l-84 17l-86 31l-61 53l-55 59l-31 80l-23 94v596h-131v217zM362 1499v-592l17 -59l20 -41l62 -23l90 7l63 38l60 56l35 63v551h-347z" />
    <glyph glyph-name="equal" unicode="=" horiz-adv-x="1587" 
d="M479 1724l70 -8l90 -30l47 -35l47 -35l41 -53l23 -54l18 -47l10 -53v-41l-12 -53l-29 -49l-41 -60l-59 -65l-70 -70l29 -12h541v440l-142 4l-131 131v86l680 4v-225h-194v-1489h-64l-149 125v748l-361 2l-69 33l-76 34l-64 31l-59 31l-41 -35l-59 -59l-41 -41l-45 -50
l-37 -45l-35 -65l-23 -64v-65l13 -51l22 -52l31 -41l39 -36l31 -17l69 -8h47l54 6l38 29l-32 35l-25 37l-12 40v48l12 47l43 47l45 28l58 13l77 -19l41 -34l35 -44l12 -63l-6 -53l-18 -56l-41 -55l-33 -39l320 -348h-105l-276 311l-35 -39l-47 -24l-53 -16l-70 -7h-82
l-57 21l-64 26l-43 29l-47 39l-39 43l-31 41l-28 51l-19 60l-16 57v88l24 100l35 58l54 65l45 51l69 56l56 51l45 41l-60 47l-41 35l-47 53l-39 66l-18 82v86l18 81l39 72l47 45l60 25zM473 1602l-53 -29l-35 -45l-23 -66v-73l19 -62l33 -53l47 -49l53 -31l43 31l53 41
l52 45l40 57l25 47l16 53l-16 54l-20 41l-39 28l-47 19l-41 6l-58 -2z" />
    <glyph glyph-name="greater" unicode="&#x3e;" horiz-adv-x="1053" 
d="M10 1720h217l310 -309v-485h481v-172h-481v-222h-175l-221 222v172h176v444l-131 133h-176v217zM627 1720h434v-217h-258z" />
    <glyph glyph-name="question" unicode="?" horiz-adv-x="1348" 
d="M-12 1720h393l176 -217h-43l-63 -24l-66 -52l-45 -51l-12 -49l10 -61l35 -49l53 -25l59 -10l78 12l58 23l45 28l49 35l192 -219h-88l-100 -25l-86 -35l-70 -43l-49 -61l-35 -55l-12 -74l12 -55l31 -58l53 -59l51 -35l119 -29h45l94 19l89 45l86 49l63 68l41 61l137 -156
l-43 -51l-51 -45l-53 -35l-60 -36l-61 -29l-109 -29l-98 -12l-100 10l-82 31l-70 39l-69 41l-58 43l-53 51l-35 43l-31 51l-22 51l-12 50v73l22 72l29 51l41 49l96 74l-72 14l-65 6l-74 23l-72 35l-47 37l-35 51l-10 51l12 55l35 52l45 36l70 29l-268 4v217zM1348 1499
l-347 4l-176 217l523 4v-225z" />
    <glyph glyph-name="at" unicode="@" horiz-adv-x="1399" 
d="M-6 1720h1405v-217h-221v-352h-791l-2 -209l25 -70l71 -30l70 37l63 39l117 40l88 9l139 4l84 -29l95 -57l55 -62l49 -92l41 -110l6 -107l-12 -108l-29 -84l-55 -82l-70 -70l-92 -64l-65 -30l-99 -29h-145l-143 64l-97 77l-90 86l-88 107l-80 94l-90 123l-51 86v66
l180 -205l125 -125l162 -117l102 -39l152 -8l102 37l82 57l62 78l45 76l22 86l6 102l-22 76l-51 41l-72 14l-72 -32l-51 -35l-72 -47l-82 -47l-127 -3l-81 25l-66 31l-64 57l-79 72l-54 74l-41 75l-20 103l6 104l41 76l68 39l92 12l596 -4v180h-977v217z" />
    <glyph glyph-name="A" unicode="A" horiz-adv-x="1855" 
d="M750 1628q-78 -14 -156.5 -51t-142.5 -93t-113 -128l-158 166h-4q0 8 52 45q29 21 59 39t75 42q80 42 173 72.5t174 30.5h24q38 0 72.5 -9t68.5 -26q63 -30 111.5 -81.5t78 -119.5t38.5 -145v-18q0 -57 -28.5 -113t-77.5 -98t-107 -60l82 -32h444l21 20l22.5 21.5
t19.5 22.5q21 24 21 44v342h-192l-179 221h715l4 -221l-137 4v-1499h-76l-135 123v778q-13 -10 -51 -31q-36 -18 -78 -18l-18 4l-25 6l-109 28l-122 31l-95 27q12 -6 30 -18t44 -32q50 -36 106.5 -111t71.5 -173l4 -61q0 -78 -35 -145t-94 -117q-55 -47 -125.5 -73.5
t-130.5 -26.5q-82 0 -153 19t-141 61q-131 78 -230 189q-94 107 -146 190l-69 112l14 53q94 -145 196.5 -241t199.5 -141.5t188 -45.5q67 0 130 27t110 74q69 69 69 174q0 60 -17.5 109.5t-29.5 68.5q-63 92 -225 92q-50 0 -90 -9t-41 -16l-139 170q96 11 198 52t177.5 113
t87.5 169v15q0 54 -30 99t-75 72t-88 27h-18z" />
    <glyph glyph-name="B" unicode="B" horiz-adv-x="1241" 
d="M4 1720h1229v-217h-1229v217zM481 1245h262l140 -16l137 -127l168 -176v-148l-19 -78l-39 -63l-30 -47l-72 -74l-70 -43l-69 -35l-156 -28h-184l-117 28l-94 54l-111 98l-63 90l-35 135v137l35 88l63 90l95 64zM569 1075l363 -375l67 56l56 86v84l-62 86l-69 47l-170 37z
M406 1006l-84 -76l-31 -111l31 -110l53 -82l112 -64l172 4l156 31z" />
    <glyph glyph-name="C" unicode="C" horiz-adv-x="1481" 
d="M6 1720h1473v-221l-1473 4v217zM1417 838v-254l-53 -47l-94 -68l-88 -41l-80 -29l-88 -20h-62l-82 12l-73 29l-66 26l-53 46l-47 45l-47 47l-35 49l-21 35l-14 73l2 62l27 51l43 57l53 35l92 31h-426l-166 215h1096l133 -133v-82h-403l-86 -39l-54 -27l-59 -45l-39 -41
l-25 -51l-2 -55l2 -51l17 -41l35 -35l53 -29l72 -8l88 8l88 21l92 43l72 41l88 65l69 58z" />
    <glyph glyph-name="D" unicode="D" horiz-adv-x="1563" 
d="M-12 1720h1581v-217h-131v-1499h-82l-133 131v926h-621l-92 -2l133 -82l90 -47l92 -51l52 -35l53 -37l49 -51l22 -64l-12 -100l-37 -66l-88 -53l-123 -45l-92 -18l-141 30l49 -61l492 -375l-91 -4l-217 133l-239 150l-191 120l-157 134l-37 67l-17 74l19 55l28 29l54 29
l69 6l47 -6l52 -17l30 -33l27 -51l-4 -59l4 -58l49 -57l86 -35l98 23l82 63l37 64l4 78l-28 63l-99 88l-118 82l-131 82l-66 37h-43l-133 174h1059v268h-1235v217z" />
    <glyph glyph-name="E" unicode="E" horiz-adv-x="1399" 
d="M-6 1720h1405v-217l-217 -4v-475l-11 -92l-34 -66l-90 -63l-95 -35h-116l-136 158l107 -8l90 14l45 35l23 47v489h-621v-665l8 -47l29 -58l76 -71l116 -64l111 -55l113 -58l116 -57l134 -66l124 -57l93 -76l6 -71l-29 -80l-65 -33h-86l-54 14l-43 41l2 45l41 19l39 37
l6 39l-385 151l-223 90l-180 82l-105 74l-49 72l-10 100v690l-135 4v217z" />
    <glyph glyph-name="F" unicode="F" horiz-adv-x="1534" 
d="M6 1720h1532v-217h-524v-463l67 31l82 35l84 31l82 32l92 -196l-100 -37l-96 -41l-129 -66l-82 -47v-778h-82l-129 131v555l-49 -31l-58 -32l-51 -17l-76 -24l-88 4l-75 12l-54 23l-12 8l-59 41l-58 67l-55 82l-29 115v565h-133v217zM352 1499v-493l4 -105l41 -72
l101 -16l98 25l66 32l71 41l70 41v547h-451z" />
    <glyph glyph-name="G" unicode="G" horiz-adv-x="1157" 
d="M1153 1499h-315v-643l-13 -137l-24 -70l-39 -51l-60 -35l-81 -14l-89 6l-65 29l-70 43l-53 57l-53 57l-45 62l-35 51l-37 64l-27 49l-18 41l-10 39v34l35 -28l22 -29l41 -45l45 -47l62 -66l55 -41l47 -34l53 -23l60 -6l45 6l24 35l13 57v643h-617v217h1149v-221z" />
    <glyph glyph-name="H" unicode="H" horiz-adv-x="1399" 
d="M-6 1720h1405v-217h-1405v217zM309 1233l78 18l105 9l122 -15l119 -53l80 -41l57 -49l37 -37l25 -53l35 -58l34 -28h183l45 45h82v-174h-45l-41 -43h-205l-47 55l-8 -61l-13 -62l-20 -55l-25 -35l-24 -41l-52 -47l-53 -35l-45 -29l-84 -28l-98 -6l-129 12l-72 35l-51 28
l-88 84l-53 80l-35 58l-23 77l-14 60l-4 35l18 6l17 -25l41 -69l53 -76l65 -72l56 -41l55 -29l64 -12h47l65 17l51 30l45 31l50 61l32 82l15 97l-6 88l-43 69l-41 35l-45 29l-58 10l-43 -4l-51 -12l-35 -23l-41 -31l-37 -45l-176 181l76 34z" />
    <glyph glyph-name="I" unicode="I" horiz-adv-x="592" 
d="M580 1733v-217h-160v-1500h-82l-133 131v1369h-209v217h225q0 6 -32 78t-72.5 145t-71.5 104q-111 101 -208 152t-181 51q-109 0 -193 -48t-108 -142q-14 -59 -14 -154l2 -88l2 -70l-230 -4q-2 4 -4 9q-2 15 -2 36q0 102 19 283q12 92 74.5 168t162.5 118t221 42
q112 0 211 -38t173.5 -93t128.5 -113q49 -53 77 -96q20 -30 39 -64t36 -73q31 -71 52 -130l25 -75h4z" />
    <glyph glyph-name="J" unicode="J" horiz-adv-x="1399" 
d="M-6 1720h1405v-217h-1405v217zM391 1192h965v-209h-578l148 -76l145 -76l76 -59l51 -59l25 -99v-104l-17 -88l-28 -66l-48 -57l-55 -53l-80 -35l-112 -31h-129l-117 53l-80 66l-76 74l-88 100l-100 135l-78 101l-88 129h55l117 -125l127 -123l94 -74l88 -55l119 -51h111
l110 51l60 82l6 135l-56 82l-170 125l-139 82l-71 10z" />
    <glyph glyph-name="K" unicode="K" horiz-adv-x="1481" 
d="M-4 1720h1497v-217l-403 -4v-504l57 47l63 41l56 33l69 37l103 -182l-64 -25l-76 -33l-51 -34l-84 -70l-73 -68v-737h-78l-133 131v490l-72 -62l-98 -67l-129 -23h-107l-74 14l-61 29l-68 39l-61 47l-64 76l-34 65l-23 60l-2 80l8 94l33 65l41 60l49 55l70 37l106 41h88
l82 -10l88 -47l82 -76l146 -164v565h-883v217zM451 1059l-64 -29l-43 -31l-39 -53l-18 -45l-17 -59l11 -54l10 -51l31 -59l51 -47l84 -29l88 6l59 31l58 39l63 43l49 45l64 59l34 47l-75 74l-66 60l-57 36l-72 33l-74 15z" />
    <glyph glyph-name="L" unicode="L" horiz-adv-x="1135" 
d="M-6 1720h1141v-217h-1141v217zM434 1280l105 6l98 -6l84 -27l76 -30l67 -47l47 -41l60 -60l119 117v-307l-185 -185l-162 160l158 158l-45 41l-47 37l-55 32h-47l-56 9h-49l-33 -15l-59 -10l-66 -37l-47 -33l-53 -55l-39 -57l-29 -64l-2 -88l23 -98l49 -100l57 -78
l54 -68l71 -69l74 -66l72 -53l100 -72l139 -82l-100 2l-174 88l-137 82l-82 51l-74 50l-90 79l-70 66l-39 53l-47 74l-37 135v170l41 100l54 80l88 78l86 47z" />
    <glyph glyph-name="M" unicode="M" horiz-adv-x="971" 
d="M0 1720h965v-217l-486 -4v-575l441 2v-172h-439v-222h-172l-221 222v172h176v577h-264v217z" />
    <glyph glyph-name="N" unicode="N" horiz-adv-x="1028" 
d="M6 1720h1008v-217h-1008v217zM324 1059h647v-205h-461l-43 -6l-21 -25l15 -35l26 -32l9 -64l-9 -71l-32 -37l-76 -6l-86 32l-66 62l-59 61l-29 49l-12 74v70l18 57l48 47l65 23z" />
    <glyph glyph-name="O" unicode="O" horiz-adv-x="539" 
d="M-393 2605l270 -2l123 -18l86 -50l68 -47l51 -53l45 -53l31 -47l30 -66l33 -76l18 -67l19 -88l10 -82l2 -84v-148h133v-219h-133l4 -1499h-86l-125 141v1358h-182v219l107 2l-39 76l-56 82l-79 82l-66 53l-94 47l-82 17h-240l-145 211h315l129 -35l88 -53l64 -54l49 -47
l45 -47l41 -55l31 -47l41 -60l41 -71l57 -101h70v101l-7 112l-12 121l-29 94l-32 70l-37 53l-60 54l-45 30l-63 33l-49 12h-189z" />
    <glyph glyph-name="P" unicode="P" horiz-adv-x="920" 
d="M-4 1720h922v-217h-572v-661l27 -29h59l78 23l82 41l88 47l86 63l106 72l5 -230l-54 -41l-61 -32l-66 -47l-78 -37l-63 -29l-100 -29l-74 -6l-76 17l-65 37l-54 57l-45 69l-12 101v614h-133v217z" />
    <glyph glyph-name="Q" unicode="Q" horiz-adv-x="1188" 
d="M385 1720h113l59 -16l57 -29l48 -33l30 -40l56 -64l26 -63l17 -70v-64l-7 -71l-22 -64l-31 -53l-39 -47l-59 -57l-60 -37l-69 -33l-66 -25l-65 -8h-49l-66 15l-47 26l22 -90l29 -59l31 -50l41 -47l82 -69l59 -33l82 -31h82l109 37l75 47l90 64l88 80l68 77l33 58l4 -309
l-37 -48l-68 -63l-59 -47l-70 -47l-88 -47l-98 -31h-84l-76 24l-65 37l-70 47l-51 50l-53 55l-37 53l-39 57l-35 48l-31 79l-22 54l-17 55l-14 90l-4 74l72 4l39 -25l59 -22h76l57 16l47 21l37 26l29 21l-76 16l-55 33l-49 31l-54 47l-59 63l-37 78l-14 88l16 88l45 55
l43 33l45 21zM1182 1499l-168 4l-176 217h344v-221zM467 1626l-61 -16l-50 -25l-32 -47l-13 -70v-47l23 -73l22 -48l37 -53l74 -55l59 2l58 39l34 47l25 61l6 70l-6 64l-29 69l-41 49l-47 23z" />
    <glyph glyph-name="R" unicode="R" 
d="M-287 2523h92l82 -47l66 -70l41 -75l35 -115h-39l-47 59l-60 66l-41 29l-69 18l-60 -6l-51 -29l-31 -37l-28 -57l-19 -66l-6 -79l16 -82l27 -60l35 -71l45 -52l49 -65l57 -53h-124l-111 118l-80 117l-35 113l-12 96l12 100l29 72l29 53l51 54l65 40z" />
    <glyph glyph-name="S" unicode="S" horiz-adv-x="1159" 
d="M0 1720h1171v-221h-649v-528l574 2v-176h-434l-89 88h-47l-18 -41l-27 -47l-26 -41l-62 -47l-53 -23l-53 -14l-6 -33l16 -47l20 -47l23 -41l33 -53l37 -58l45 -49l47 -57l41 -41l43 -37l39 -35l41 -35l59 -51l57 -35h47v-53h-73l-78 51l-60 43l-57 41l-74 53l-71 64
l-72 65l-80 76l-65 76l-47 59l-46 64l-20 47l-23 80v63l7 68l22 57l31 47l51 33l59 25h76v491h-309v217z" />
    <glyph glyph-name="T" unicode="T" horiz-adv-x="864" 
d="M-12 1720h878v-221l-878 4v217zM778 1102v-219h-416l-53 -17l-35 -41l-18 -57l8 -72l19 -69l28 -72l41 -80l47 -69l52 -72l63 -76l64 -72l71 -63l82 -76l-63 -2l-64 33l-53 45l-43 35l-57 57l-54 49l-53 58l-51 57l-47 61l-51 74l-37 64l-35 71l-29 70l-16 72v75l8 66
l27 57l39 47l59 39l53 19l88 8h426z" />
    <glyph glyph-name="U" unicode="U" 
d="M-467 -139h168l131 -43l109 -86l125 -135l102 -119l154 -185h-82l-45 45l-117 111l-113 111l-106 90l-109 57l-88 17h-88l-82 -56l-43 -71l-12 -76l18 -99l43 -73l51 -35l70 -27h90l55 41l117 4l-28 -47l-70 -47l-100 -45h-152l-139 53l-88 92l-52 119l-6 129l23 80
l53 76l88 65z" />
    <glyph glyph-name="V" unicode="V" horiz-adv-x="1223" 
d="M4 1724h1149v-225h-1149v225zM1053 938v-236l-80 -98l-72 -72l-78 -65l-90 -45l-78 -19h-92l-100 19l-57 29l-62 45l-53 47l-39 43l-43 53l-35 57l-29 64l-18 55l-10 70l2 51l16 47l19 51l26 41l21 35l41 37l41 24l55 29l49 23l51 22l99 6h61l92 -12l98 -39l97 -70
l61 -61l55 -68zM569 1075l-90 -20l-73 -35l-44 -37l-34 -41l-29 -51l-8 -88l14 -84l29 -64l53 -51l82 -35l74 -6l84 6l82 35l92 51l47 41l43 35l45 43l37 49l35 49l-66 64l-70 47l-71 37l-82 27l-68 22z" />
    <glyph glyph-name="W" unicode="W" 
d="M-938 2621l270 5l123 -27l84 -47l70 -47l51 -54l43 -53l33 -47l31 -67l32 -76l19 -66l18 -88l12 -104v-211h-112v100l-6 115l-13 119l-28 94l-33 69l-37 54l-53 57l-51 29l-64 30l-49 15h-190zM-334 1739l-104 -2l-37 75l-53 89l-80 81l-66 56l-94 45l-82 16h-240
l-145 211h315l129 -35l84 -47l70 -53l47 -41l45 -55l41 -60l29 -34l41 -66l47 -76z" />
    <glyph glyph-name="X" unicode="X" horiz-adv-x="1184" 
d="M6 1724l1176 -4l2 -217l-529 -4v-135h47l80 -16l47 -27l37 -35l39 -41l33 -51l33 -66l22 -57l25 -98l2 -88l-2 -72l-25 -88l-45 -86l-82 -90l-118 -82l-123 -64l-68 -22l64 -70l135 -125l198 -170l164 -92l-182 -2l-387 328l-74 53l-55 37l-70 18l-51 29l-63 35l-37 45
l-31 47l-14 55v70l22 57l45 52l72 18l53 -6l47 -23l41 -41l12 -57l9 -61l49 8l114 47l74 41l99 80l73 118l21 82v80l-13 68l-18 45l-41 47l-57 45l-72 18h-66l-63 -12l-45 -22l-66 -29l-53 -35l-45 -41l-49 -53l-156 174l88 35l80 31l53 22l93 37l2 135h-451v225z" />
    <glyph glyph-name="Y" unicode="Y" horiz-adv-x="1106" 
d="M4 1724h1108l-2 -225h-567l18 -24l31 -29l41 -35l39 -47l28 -57l9 -68l-9 -51l-20 -70l-47 -63l-53 -49l-72 -35l-92 -35h-78l-102 29l63 -99l63 -63l72 -72l68 -41l82 -22h108l90 28l82 52l72 61l47 45l35 51v-266l-92 -82l-88 -61l-72 -39l-111 -13l-75 7l-64 34
l-72 43l-65 64l-82 82l-64 92l-53 84l-45 82l-37 80l-6 94l53 -4l56 -33l51 -8h59l45 14l54 21l45 34l43 35l30 58l17 77l-17 64l-36 53l-46 45l-36 29l-52 8h-354v225z" />
    <glyph glyph-name="Z" unicode="Z" horiz-adv-x="1081" 
d="M4 1724h1079l-2 -221h-637l529 -526v-332l-78 -55l-135 -33h-139l-152 6l-104 39l-78 43l-45 47l-49 58l-41 81l-17 123v545h-131v225zM338 1411l-4 -485l22 -66l37 -45l33 -27l61 -32l70 -8h129l102 12l72 37l51 57z" />
    <glyph glyph-name="bracketleft" unicode="[" 
d="M-381 795v-181l-725 -485l-92 121z" />
    <glyph glyph-name="backslash" unicode="\" 
d="M-158 2591v-45l133 -133h43v-41h-43l-133 -131v-46h-37v46l-133 131h-45v41h45l133 133v45h37zM-639 2413v-43l25 -76l36 -64l58 -55l57 -45l70 -35l59 -22l92 -13h136l102 35l82 53l86 80l53 66l29 76v43h37l4 -82l-17 -95l-75 -110l-76 -82l-74 -66l-133 -53h-209
l-119 45l-100 66l-76 82l-45 77l-43 127v91h41z" />
    <glyph glyph-name="bracketright" unicode="]" horiz-adv-x="1399" 
d="M-6 1720h1405v-217h-133v-1499h-82l-129 131v502l-649 -328l-148 154l797 368v156l-117 60l-147 43h-140l-125 -29l-69 -41l-82 -37l-72 -53l-186 211l100 35l94 30l95 23l104 24h111l92 -8l110 -22l109 -64l121 -59v403h-1059v217z" />
    <glyph glyph-name="asciicircum" unicode="^" horiz-adv-x="1669" 
d="M-4 1720h1671v-217h-397v-303l28 -6l54 -16l57 -27l49 -29l45 -41l35 -45l31 -63l22 -55l11 -64v-57l-21 -90l-43 -109l-63 -100l-66 -84l-86 -92l-106 -86l-95 -50l-80 -41l-124 -28l-82 -11h-82l-76 11l-82 28l-53 23l-64 33l-53 35l-61 51l-27 28l-35 47l-22 37
l-25 41l-16 58v65l6 58l18 63l47 57l45 33l66 51h-98l-68 23l-61 29l-54 28l-30 33l-35 51l-6 47l-4 51l20 60l37 53l51 39l82 35l55 26l62 23l149 -172l-67 -14l-68 -15l-59 -20l-47 -37l-23 -47v-47l16 -33l25 -20l35 -29l47 -23l41 -12h39l96 41l80 31l151 -172h-51
l-71 -13l-52 -22l-63 -29l-37 -35l-45 -45l-29 -55l-14 -57v-58l14 -55l29 -51l47 -58l45 -26l84 -29l109 -6l129 27l106 57l66 45l73 55l64 58l55 57l45 55l-67 9l-54 20l-61 35l-45 35l-59 51l-48 55l-34 57l-19 64v78l19 74l37 55l53 35l45 22l41 10l-45 82v252h-1059
v217zM1257 1110l-63 -8l-47 -27l-45 -39l-25 -57l-8 -61v-64l8 -45l23 -55l30 -47l46 -45l57 -41l55 -11l45 11l31 47l35 57l18 49l17 74l6 70l-10 61l-25 51l-41 45l-49 27z" />
    <glyph glyph-name="underscore" unicode="_" horiz-adv-x="1106" 
d="M866 889l70 -64l53 -65l41 -68l19 -65l6 -88l-13 -78l-41 -70l-63 -47l-96 -35l-94 -12l-86 12l-89 19l-92 34l-67 44l-70 49l-61 55l-68 68l-55 65l-62 66v86l66 -70l94 -94l86 -68l70 -43l88 -35l123 -18h67l80 18l53 35l31 43v62l-25 47l-49 53l-80 76l-100 82
l-117 96l-153 131l-127 129l-53 78l-25 82v98l18 66l43 65l45 35l72 33l57 14l140 10h604v-217h-567l-78 -10l-58 -18l-30 -35l-11 -54l7 -57l37 -53l79 -72l125 -110l133 -101z" />
    <glyph glyph-name="grave" unicode="`" horiz-adv-x="1587" 
d="M-12 1720l1605 4v-221h-155v-1499h-82l-133 131v363l-76 -64l-82 -43l-78 -26l-76 -15h-88l-96 15l-88 26l-84 43l-59 41l-64 57l-53 58l-33 47l-41 63l-18 72l-11 82l21 78l41 57l47 47l72 64l-72 6l-88 22l-57 29l-64 41l-53 62l-19 63l19 74l35 47l63 55l-233 4v217z
M473 1499l-53 -29l-45 -26l-43 -47l-27 -64v-51l35 -47l53 -37l74 -20l76 6l59 10l47 25l35 22l43 29l184 -199h-69l-94 -18l-70 -29l-68 -35l-67 -43l-51 -57l-25 -76v-80l14 -53l35 -59l45 -43l41 -33l64 -35l75 -6h62l63 12l64 23l57 28l49 35l66 57l49 50l43 63l25 64
l-2 663h-744z" />
    <glyph glyph-name="a" unicode="a" horiz-adv-x="592" 
d="M0 1720h584v-217h-162v-1499h-82l-131 131v1368h-209v217z" />
    <glyph glyph-name="b" unicode="b" horiz-adv-x="1456" 
d="M0 1720h1450v-217h-133v-1499h-82l-133 131v467l-66 -74l-78 -55l-51 -33l-94 -41l-139 -24l-111 12l-78 12l-94 41l-80 47l-94 91l-65 96l-39 98l-7 88l13 76l33 94l57 66l65 57l84 47l76 35l74 16l84 6l88 9l68 -15l49 -16l88 -41l69 -51l74 -62l74 -82v504h-1102v217z
M563 1071l357 -412l79 66l76 88v88l-47 72l-108 86l-117 22l-129 6zM410 1014l-70 -31l-37 -57l-22 -82l6 -103l37 -67l51 -56l82 -49l86 -24l123 -6l75 16l47 23z" />
    <glyph glyph-name="c" unicode="c" horiz-adv-x="1749" 
d="M-23 1720l1784 4v-221h-157v-1499h-82l-133 131v473l-68 -76l-80 -63l-88 -41l-78 -29l-88 -20h-63l-82 12l-74 29l-66 26l-53 46l-47 45l-47 47l-35 49l-18 35l-17 73l2 62l27 51l43 57l53 35l90 27h-413l-176 211h1089l139 -125v-86h-338l-71 -6l-80 -29l-53 -27
l-60 -45l-37 -41l-26 -51l-2 -55l2 -51l16 -41l35 -35l53 -29l82 -8l78 8l90 21l90 43l74 41l88 65l68 58l41 47v665h-1412v217z" />
    <glyph glyph-name="d" unicode="d" horiz-adv-x="1427" 
d="M0 1720h1450v-217h-266v-311l-25 -86l-65 -10l-101 16l-88 31l-102 20h-94l-88 -10l-52 -25l-61 -22l-62 -41l-55 -72l-39 -82l-14 -123l14 -114l45 -105l58 -71l65 -52l94 -30h95l100 16l61 31l37 57l-30 66l-17 57v82l23 57l43 31l45 16l65 15l88 -21l52 -35l34 -47
l23 -90l-23 -106l-45 -72l-55 -67l172 -160l145 -140l29 -61l2 -68l-8 -30l-29 -41l-59 -33l-47 -8l-123 106l55 6l51 27l29 41l-110 129l-164 170l-39 -33l-66 -41l-71 -24l-68 -10h-94l-94 26l-95 31l-69 41l-82 57l-84 72l-68 82l-47 76l-24 69l-23 82l-6 82l6 82l23 94
l49 92l51 72l57 47l88 57l101 35l100 15l76 -9l94 -6l57 -10l66 -8l63 -17v205h-954v217z" />
    <glyph glyph-name="e" unicode="e" 
d="M-1176 2486h439l57 -12l59 -23l58 -41l43 -34l45 -41l37 -54l39 -73l34 -60l33 -65l33 -86l29 -82l34 -90l27 -86h-137l-16 76l-25 79l-23 62l-30 76l-41 75l-51 68l-58 49l-55 35l-92 22h-271z" />
    <glyph glyph-name="f" unicode="f" horiz-adv-x="1749" 
d="M6 1720h1759v-217l-753 -4v-469l69 41l82 35l70 16l82 21l106 -6l76 -15l70 -41l59 -57l43 -72l29 -82l16 -114l-22 -113l-37 -88l-45 -74l-88 -106l-70 -72l-166 160l129 106l107 105l47 92l6 78l-8 74l-35 49l-57 26l-54 -20l-100 -37l-96 -41l-129 -66l-82 -47v-778
h-82l-129 141v545l-49 -31l-58 -32l-51 -17l-76 -24l-88 4l-75 12l-54 23l-12 8l-59 41l-58 67l-55 82l-27 95l-2 585h-133v217zM356 1499v-598l41 -72l101 -16l98 25l66 32l71 41l62 31v557h-439z" />
    <glyph glyph-name="g" unicode="g" horiz-adv-x="1505" 
d="M4 1720h1493v-217h-133v-1499h-82l-131 131v1368h-315v-649l-11 -135l-24 -70l-39 -51l-60 -35l-81 -14l-89 6l-65 29l-70 43l-53 57l-53 57l-45 62l-35 51l-37 64l-27 49l-18 41l16 32l31 -16l41 -45l45 -47l62 -66l55 -41l47 -34l53 -23l60 -6l45 6l24 35l13 57v643
h-617v217z" />
    <glyph glyph-name="h" unicode="h" horiz-adv-x="1241" 
d="M4 1720h1229v-217h-178v-346l-588 -4l-47 -29l-23 -65l25 -70l53 -65l98 12h72l70 -6l94 -23l98 -43l58 -39l55 -47l45 -69l22 -72l7 -86l-7 -72l-40 -98l-52 -76l-49 -47l-149 141l41 33l51 47l29 58l14 53l-8 65l-39 76l-56 47l-75 19l-111 16l-115 -16l-59 -23
l-49 -37l-55 -45l-27 -53l-16 -43l-11 -68l4 -59l17 -72l24 -59l31 -55l68 -72l47 -43l67 -55l99 -60l73 -37l78 -41l99 -41l176 -67l-146 4l-198 70l-205 90l-82 47l-107 69l-69 54l-70 67l-43 60l-41 75l-29 78l-12 64v51l12 63l29 62l35 51l55 53l64 45l69 35l-51 49
l-47 52l-37 53l-28 43l-25 67l6 60l25 45l47 26l76 23l81 12l439 -6v174h-838v217z" />
    <glyph glyph-name="i" unicode="i" horiz-adv-x="567" 
d="M170 1726v234l10 129l49 117l74 94l62 59l102 51l96 31l129 13l156 -21l123 -47l110 -82l95 -82l94 -98l92 -107l82 -108l55 -82l57 -82h-71l-68 82l-112 127l-105 100l-123 111l-123 76l-131 49l-149 10l-123 -37l-84 -74l-68 -112l-20 -133l-4 -220h186v-213l-174 -2
v-1499h-82l-131 131v1368l-174 2v213z" />
    <glyph glyph-name="j" unicode="j" horiz-adv-x="1720" 
d="M0 1720h1714v-217l-129 -4v-1495h-86l-131 131v838h-524l-8 -25l96 -43l88 -51l57 -35l53 -35l48 -47l22 -35l25 -57l10 -82v-76l-16 -61l-19 -41l-31 -51l-45 -47l-47 -35l-63 -35l-41 -22l-72 -13h-86l-78 6l-98 48l-84 61l-92 94l-94 107l-93 133l-65 112l-41 70
l10 29h35l59 -70l91 -104l98 -99l76 -67l75 -41l101 -35l86 -6l104 35l72 53l37 65v93l-37 71l-64 70l-77 63l-54 41l-63 35l-94 27h-76l-146 211h965v319h-1368v217z" />
    <glyph glyph-name="k" unicode="k" horiz-adv-x="1884" 
d="M-6 1720h1890v-217h-794v-491l53 30l63 41l58 33l65 19l45 6h56l61 -13l41 -26l47 -43l47 -53l35 -45l31 -54l34 -71l23 -76l6 -82l-10 -53l-21 -76l-32 -76l-60 -67l-88 -74l-74 -62l-153 215h45l41 19l47 24l47 35l35 29l49 70l35 51l10 69l-6 66l-35 47l-47 35l-57 16
h-82l-58 -22l-47 -29l-55 -31l-80 -55l-69 -55v-750h-82l-131 131v490l-74 -62l-96 -67l-129 -23h-109l-72 14l-63 29l-66 39l-63 47l-64 76l-35 65l-20 60l-4 80l10 94l31 65l41 60l51 55l68 37l108 41h88l82 -10l88 -47l82 -76l146 -164v565h-883v217zM446 1059l-61 -29
l-45 -31l-37 -53l-20 -45l-15 -59l8 -54l11 -51l30 -59l52 -47l86 -29l88 6l59 31l57 39l62 43l51 45l64 59l34 47l-75 74l-68 60l-55 36l-74 33l-72 15z" />
    <glyph glyph-name="l" unicode="l" horiz-adv-x="1778" 
d="M-23 1720l1809 4v-221h-580v-311l58 8l84 -8l79 -27l66 -37l53 -38l41 -37l39 -54l25 -53l16 -61l6 -62v-75l-22 -93l-31 -59l-47 -74l-57 -67l-60 -62l-82 -69l-59 -37l-191 198l60 19l96 35l61 39l62 40l59 66l47 70l23 84l2 53l-14 70l-35 59l-47 55l-76 31h-62l-65 6
l-59 -25l-64 -57l-76 -84l-90 -115l-69 -83l-193 112l176 176l-45 25l-43 22l-72 33h-86l-69 -4l-70 -29l-61 -22l-58 -41l-47 -43l-26 -47l-19 -92v-76l10 -72l23 -72l41 -96l61 -90l80 -82l101 -88l94 -61l88 -54l94 -55l-84 2l-127 53l-84 39l-88 50l-86 61l-88 72
l-78 75l-53 76l-45 66l-35 76l-29 75l-2 86l2 107l29 90l41 63l53 60l58 41l84 45l116 24l105 -8l92 -6l119 -47l86 -49l78 -53l38 47l35 39v327h-1016v217z" />
    <glyph glyph-name="m" unicode="m" horiz-adv-x="1403" 
d="M-10 1720l1427 4l4 -221h-202v-1499h-82l-131 131v619h-533v-222h-129l-266 265v133h178v573h-266v217zM467 1499v-569h532v569h-532z" />
    <glyph glyph-name="n" unicode="n" horiz-adv-x="1346" 
d="M965 1040v465h-971v215h1354v-215h-170v-1499h-82l-131 133v697h-498l-16 -33l12 -35l29 -31l6 -63l-6 -72l-35 -39l-76 -6l-84 35l-68 59l-59 64l-29 47l-12 76v69l18 58l48 47l67 22l66 6h637z" />
    <glyph glyph-name="o" unicode="o" horiz-adv-x="539" 
d="M-610 2476l358 -2l125 -16l76 -37l47 -27l51 -37l76 -63l57 -72l49 -63l39 -80l31 -88l23 -78l18 -94l18 -99h181v-221h-142v-1493h-86l-125 154v1343h-180v217h205l-10 111l-21 88l-41 106l-76 89l-98 81l-94 39l-133 25h-211z" />
    <glyph glyph-name="p" unicode="p" horiz-adv-x="1184" 
d="M12 1724h1172v-221l-164 2v-1499h-82l-125 154v518l-53 -16l-58 -31l-51 -17l-73 -24l-91 2l-73 12l-56 23l-12 10l-59 41l-60 63l-53 84l-27 111v567l-135 2v219zM362 1503v-598l41 -74l101 -16l94 16l82 35l57 39l76 43v555h-451z" />
    <glyph glyph-name="q" unicode="q" horiz-adv-x="1456" 
d="M385 1720h113l59 -16l57 -29l48 -33l30 -40l56 -64l26 -63l17 -70v-64l-7 -71l-22 -64l-31 -53l-45 -53l-53 -51l-55 -41l-68 -29l-72 -25l-69 -2l-45 -6l-66 15l-47 26l22 -90l29 -59l31 -50l47 -67l57 -49l76 -39l84 -25h82l109 37l90 47l94 76l80 82l53 68l35 81v504
h-86l-176 217h612v-217h-133v-1499h-82l-135 154v510l-39 -54l-60 -63l-59 -47l-70 -47l-88 -47l-98 -31h-76l-71 12l-82 43l-64 41l-59 51l-41 47l-53 72l-45 70l-27 57l-23 57l-26 82l-19 68l-12 74v49l53 -2l54 -29l57 -12h72l63 12l51 25l37 26l29 21l-60 20l-65 21
l-68 35l-55 55l-47 59l-35 78l-14 88l16 88l45 55l43 33l45 21zM467 1626l-61 -16l-50 -25l-34 -45l-17 -59v-60l17 -65l34 -68l41 -43l70 -53l59 2l58 39l34 47l25 61l6 70l-6 64l-29 69l-41 49l-47 23z" />
    <glyph glyph-name="r" unicode="r" horiz-adv-x="971" 
d="M0 1720h965v-217h-265l2 -454l-6 -66l-16 -59l-35 -47l-43 -39l-57 -23l-64 -14l-43 -4l-41 -6l-39 -43l-6 -48l4 -55l43 -100l62 -88l71 -95l89 -100l92 -88l69 -74l103 -90l-82 6l-160 117l-111 96l-116 105l-94 98l-101 113l-63 100l-41 109l-17 90l6 80l17 69l41 37
l65 39l74 14h70l49 -22l29 -31l30 17l4 36v420h-485v217z" />
    <glyph glyph-name="s" unicode="s" horiz-adv-x="1456" 
d="M0 1720h1450v-217l-143 -4v-1495h-82l-129 131v660l-434 2l-89 88h-47l-18 -41l-27 -47l-26 -41l-62 -47l-53 -23l-53 -14l-6 -33l16 -47l20 -47l23 -41l33 -53l37 -58l45 -49l47 -57l41 -41l43 -37l39 -35l41 -35l59 -51l57 -35h47v-53h-73l-78 51l-53 35l-74 47l-59 55
l-78 58l-76 71l-80 82l-63 64l-43 65l-46 64l-20 47l-23 80v63l7 68l22 57l31 47l51 33l59 25h72l4 491h-309v217zM520 1499v-528l576 2v526h-576z" />
    <glyph glyph-name="t" unicode="t" horiz-adv-x="1348" 
d="M12 1720l1344 4v-221h-158v-1499h-82l-133 131v750h-592l-57 -19l-35 -41l-18 -57l10 -72l18 -69l29 -72l41 -80l47 -69l49 -72l64 -76l63 -72l72 -63l82 -76l-64 -2l-61 33l-53 45l-46 35l-57 57l-53 49l-53 58l-52 57l-47 61l-49 74l-39 64l-35 71l-28 70l-15 72v75
l7 66l28 57l37 47l60 39l55 19l88 8h604v401h-971v217z" />
    <glyph glyph-name="u" unicode="u" 
d="M-379 -117l86 6l88 -6l64 -30l47 -33l63 -53l31 -54l31 -78v-192l-27 -82l-57 -80l-70 -59l-78 -37l-55 -16l-88 -11l-100 17l-95 47l-100 86l-127 129l-98 123l-156 190h84l45 -43l131 -147l117 -109l94 -69l94 -27h97l94 35l59 47l51 76l15 67l-8 86l-33 53l-76 64
l-82 6l-84 -22l-53 -54h-105l41 76l64 53z" />
    <glyph glyph-name="v" unicode="v" horiz-adv-x="1348" 
d="M-10 1720h1362v-217h-133v-1499h-82l-131 131v524l-74 -92l-76 -69l-68 -52l-67 -26l-78 -21h-92l-100 21l-58 26l-61 46l-56 47l-36 45l-45 53l-35 55l-27 64l-20 57l-9 70l2 49l17 47l18 51l27 41l20 35l41 37l41 26l54 29l51 21l51 22l96 6h64l92 -12l96 -37l82 -55
l68 -72l37 -47l45 -92v571h-1016v217zM557 1071l-90 -18l-74 -35l-43 -39l-35 -41l-28 -49l-11 -88l17 -86l29 -64l53 -49l82 -35l71 -6l86 6l82 35l92 49l48 41l43 35l45 45l37 47l34 51l-65 62l-70 47l-72 39l-81 24l-68 23z" />
    <glyph glyph-name="w" unicode="w" 
d="M-1847 2486h438l57 -12l60 -23l57 -41l43 -34l45 -41l37 -54l39 -73l35 -60l35 -65l30 -86l29 -82l35 -90l28 -86h-139l-16 76l-25 79l-22 62l-31 76l-41 75l-51 68l-56 49l-57 35l-92 22h-270z" />
    <glyph glyph-name="x" unicode="x" horiz-adv-x="1614" 
d="M-10 1720h1626v-217h-131v-1499h-82l-133 131v1368l-633 -4v-137h47l78 -16l47 -29l39 -35l37 -41l35 -49l28 -64l25 -63l20 -92l6 -90v-70l-26 -92l-43 -84l-82 -92l-121 -82l-123 -64l-65 -20l63 -70l135 -127l199 -170l174 -98l-192 4l-390 328l-71 53l-58 39l-67 18
l-51 29l-64 35l-37 43l-33 47l-12 57v70l23 55l43 51l73 19l54 -6l47 -23l41 -41l12 -55l6 -64l51 11l113 47l76 41l98 78l72 120l22 82v78l-12 70l-18 43l-41 49l-58 43l-71 18h-68l-61 -12l-45 -22l-66 -27l-53 -35l-45 -41l-52 -55l-153 174l88 35l80 30l53 23l90 39v137
l-444 4v217z" />
    <glyph glyph-name="y" unicode="y" horiz-adv-x="1348" 
d="M-10 1720h1362v-217h-133v-1499h-82l-131 131v502l-93 -82l-88 -63l-71 -37l-111 -15l-76 6l-63 35l-72 45l-67 64l-82 82l-62 90l-53 86l-45 82l-37 78l-8 94l55 -2l55 -35l52 -6h59l45 12l53 23l43 34l45 35l31 56l16 79l-16 64l-37 53l-45 43l-37 29l-53 16h-354v217z
M520 1499l29 -29l31 -26l41 -35l38 -47l27 -57l10 -70l-10 -51l-18 -68l-47 -63l-54 -52l-71 -34l-93 -35h-79l-101 29l64 -97l63 -63l72 -74l65 -41l82 -20h111l88 26l82 51l74 64l53 57l22 41v594h-479z" />
    <glyph glyph-name="z" unicode="z" horiz-adv-x="1321" 
d="M12 1720h1317v-217l-135 -4v-1495h-78l-133 131v486l-94 -37l-121 -29h-137l-152 6l-104 37l-78 45l-45 47l-51 58l-41 81l-15 123v551h-133v217zM455 1499l528 -516v516h-528zM356 1356v-432l9 -68l38 -43l31 -29l64 -30l69 -11h129l101 13l53 28l45 29z" />
    <glyph glyph-name="braceleft" unicode="{" 
d="M-369 690v-182l-589 -328l67 -22l53 -76l-22 -119l-129 -57l-92 22l-66 43l-53 76l-12 94l20 82l51 45z" />
    <glyph glyph-name="bar" unicode="|" 
d="M-281 1790l-51 49l-43 49l-31 43l-26 39l-29 47l-18 43l-13 45l-10 49l-2 48l2 61l10 55l23 52l35 51l37 37l53 45l57 24l76 17l82 -15l63 -26l60 -49l47 -54l37 -53l33 -53l22 -47h-45l-29 41l-22 30l-27 33l-22 21l-29 20l-45 25l-49 16h-58l-43 -10l-34 -13l-35 -28
l-33 -35l-24 -41l-17 -49l-8 -51v-47l2 -48l16 -57l19 -53l28 -57l41 -56l45 -51l48 -47l55 -51h-88zM-41 2275v-45l100 -135h54v-37h-50l-104 -133v-45h-37v45l-98 127h-57v41h53l102 135v47h37z" />
    <glyph glyph-name="braceright" unicode="}" horiz-adv-x="999" 
d="M6 1720h1008v-217h-1008v217zM502 1260l96 -7l98 -12l92 -35l84 -53l93 -53l49 -41v-86l-131 57l-82 31l-101 8l-82 -8l-81 -25l-91 -43l-59 -26l-63 -43l-54 -39l-213 245l88 29l70 25l76 22l82 23l47 16zM932 838h82v-172l-668 -351l-153 154z" />
    <glyph glyph-name="asciitilde" unicode="~" horiz-adv-x="1321" 
d="M1311 1499h-838l-53 -29l-45 -26l-43 -47l-27 -64v-51l35 -47l53 -37l74 -20l78 6l57 10l47 25l35 22l43 29l184 -199h-69l-94 -18l-70 -29l-68 -29l-67 -49l-51 -57l-25 -76v-80l14 -53l35 -59l45 -43l41 -33l64 -35l75 -6h62l63 12l64 23l57 28l49 35l66 57l49 50
l43 63l29 70v-344l-76 -64l-82 -43l-78 -26l-76 -15h-88l-96 15l-88 26l-84 43l-59 41l-64 57l-53 58l-33 47l-41 63l-18 72l-11 82l21 78l41 57l47 47l72 64l-72 6l-88 22l-57 29l-64 41l-53 62l-19 63l19 74l35 47l63 55l-233 4v217h1323v-221z" />
    <glyph glyph-name="quotesinglbase" unicode="&#x201a;" horiz-adv-x="1614" 
d="M-10 1720h1626v-217h-131v-1540h-82l-133 172v709l-410 -201l41 -51l31 -64v-77l-6 -60l-35 -45l-72 -35h-78l-61 35l-43 35l-41 53l-39 70l-8 104l14 64l51 59l107 53l385 193h-516l-103 -10l-84 -35l-47 -53l-24 -84v-99l24 -88l41 -94l66 -98l92 -123l94 -113l88 -88
h-82l-139 119l-100 92l-111 123l-100 137l-53 115l-25 106v113l27 115l51 69l59 54l80 43l119 10h700l107 -113v428h-1280v217z" />
    <glyph glyph-name="florin" unicode="&#x192;" horiz-adv-x="1456" 
d="M662 268v-374l-19 -70l-57 -39l-72 10l-63 37l-60 51l-76 80l-59 88l-47 78l-27 70l6 59l48 -41l40 -47l80 -100q3 -2 7 -5.5t11 -14.5q16 -19 35 -34.5t35 -15.5q15 0 29 24q12 24 12 76v228l-110 63l-84 72l-68 82l-47 76l-24 69l-23 82l-6 82l6 82l23 94l49 92l51 72
l57 47l88 57l101 35l100 15l76 -9l94 -6l57 -10l66 -8l63 -17v205h-954v217h1450v-217h-266v-325l-25 -72l-65 -10l-101 16l-88 31l-102 20h-94l-88 -10l-52 -25l-61 -22l-62 -41l-55 -72l-39 -82l-14 -123l14 -114l45 -105l58 -71l65 -52l94 -30h95l100 16l61 31l37 57
l-30 66l-17 57v82l23 57l43 31l45 16l65 15l88 -21l52 -35l34 -47l23 -90l-23 -106l-45 -72l-55 -67l172 -160l145 -140l29 -61l2 -68l-8 -30l-29 -41l-59 -33l-47 -8l-123 106l55 6l51 27l29 41l-102 125l-170 195l4 -799h-88l-88 153l2 568l-78 -37h-92z" />
    <glyph glyph-name="quotedblbase" unicode="&#x201e;" horiz-adv-x="1427" 
d="M0 1720h1450v-217h-266v-315l-25 -82l-65 -10l-101 16l-88 31l-102 20h-94l-88 -10l-52 -25l-61 -22l-62 -41l-55 -72l-39 -82l-14 -123l14 -114l45 -105l58 -71l65 -52l94 -30h95l100 16l61 31l37 57l-30 66l-17 57v82l23 57l43 31l45 16l65 15l88 -21l52 -35l34 -47
l23 -90l-23 -106l-45 -72l-55 -67l172 -160l145 -140l29 -61l2 -68l-8 -30l-29 -41l-59 -33l-47 -8l-123 106l55 6l51 27l29 41l-184 205l-2 -1024h-82l-88 88l-4 207l-47 -60l-113 -63l-117 -25l-59 9l-80 10l-76 35l-72 45l-59 59l-45 70l-12 71l12 78l47 62l80 61l-82 27
l-63 24l-54 45l-28 68l6 55l47 53l59 43l-135 5v129l309 -5l-53 39l-57 35l-84 72l-68 82l-47 76l-24 69l-23 82l-6 82l6 82l23 94l49 92l51 72l57 47l88 57l101 35l100 15l76 -9l94 -6l57 -10l66 -8l63 -17v205h-954v217zM498 188l-66 -28l-41 -49l-18 -64l18 -59l35 -45
l59 -13l52 4l47 35l24 43l148 -166l-107 -16l-86 -35l-78 -45l-47 -53l-6 -70l19 -71l41 -41l86 -11l106 17l84 35l80 45l41 43l43 63l29 78l4 403h-467z" />
    <glyph glyph-name="ellipsis" unicode="&#x2026;" horiz-adv-x="1626" 
d="M10 1720h1536v-217h-352v-397h-657l-58 -25l-28 -51l-5 -59l21 -29l49 -45l53 -18l361 4l145 -176h-491l-92 -21l-66 -35l-53 -59l-41 -64l-21 -59v-78l29 -74l33 -43l59 -41l53 -28l95 -29h104l117 19l53 20l53 43l-37 53l-10 70l23 59l53 45l104 19l97 -19l69 -59
l13 -88l-13 -70l-35 -63l-41 -51l373 -369h-180l-270 307l-66 -45l-98 -35l-146 -18l-94 10l-86 33l-71 39l-66 51l-80 61l-82 86l-55 82l-49 84l-13 88l21 105l53 88l66 53l53 35l66 29l92 16l-101 59l-63 45l-53 62l-23 55v60l16 53l43 45l68 33l107 16l487 -2v223h-969
v217z" />
    <glyph glyph-name="dagger" unicode="&#x2020;" horiz-adv-x="1669" 
d="M1520 -92l-9 61l21 54l-27 59l-26 -51l-45 -72l-66 -70l-70 -69l-73 -53l-84 -43l-105 -27l-112 -19l-95 11l-110 28l-68 41l-26 37l-39 51l-13 78l19 80l41 78l-193 -45l-118 10l-86 45l-60 68l-35 98l13 98l22 50h-113v122h205l47 -32l7 -62l-7 -53v-70l7 -78l40 -63
l58 -35h135l84 60l51 63l23 59l-41 17l-82 57l-86 72l-66 82l-47 76l-26 69l-21 82l-6 82l6 82l21 94l51 92l51 72l55 47l88 57l103 35l100 15l76 -9l94 -6l57 -10l66 -8l63 -17v205h-1179v217h1700v-217h-291v-309l-25 -88l-67 -10l-101 16l-88 31l-100 20h-94l-88 -10
l-52 -25l-63 -22l-59 -41l-58 -72l-37 -82l-16 -123l16 -114l43 -105l58 -71l65 -52l96 -30h95l100 16l59 31l39 57l-32 66l-15 57v82l21 57l45 31l43 16l67 15l88 -21l50 -35l34 -47l23 -90l-23 -106l-43 -72l-57 -67l174 -160l145 -140l27 -61l4 -68l-10 -43l-35 -45
l-61 -8zM1368 223l-102 121l-66 -41l-90 -45l-139 -18l-66 -35l-61 -45l-41 -43l-31 -51l-12 -89l6 -77l25 -54l53 -51l80 -10l104 27l94 61l66 61l65 78l54 80l39 78z" />
    <glyph glyph-name="daggerdbl" unicode="&#x2021;" horiz-adv-x="1569" 
d="M1176 233l-7 -73l-26 -49l-33 -80l-39 -54l-59 -88l-66 -69l-108 -53l-138 -43l-98 -17l-115 17l-77 18l-78 43l-68 61l-41 68l-24 80l6 82l24 78l54 79l61 50l107 55l-78 68l-58 57l-65 82l-49 76l-25 69l-22 82l-7 82l7 82l22 94l51 92l49 72l58 47l88 57l100 35
l103 15l75 -9l95 -6l55 -10l68 -8l61 -17v205h-954v217h1450v-217h-265v-325l-26 -72l-66 -10l-100 16l-88 31l-101 20h-96l-88 -10l-49 -25l-64 -22l-59 -41l-57 -72l-37 -82l-17 -123l17 -114l43 -105l57 -71l66 -52l94 -30h94l103 16l59 31l37 57l-31 66l-16 57v82l22 57
l45 31l43 16l66 15l90 -21l49 -35l35 -47l22 -90l-22 -106l-43 -72l-57 -67l317 -300l29 -61l4 -68l-10 -30l-29 -41l-60 -33l-47 -8l-122 106l57 6l49 27l29 41l-76 82zM645 262l234 -293l73 68l60 80l47 71l43 95l-37 45l-92 -58l-72 -24l-65 -10h-95zM522 205l-84 -51
l-59 -78l-6 -88l30 -80l54 -53l104 -9l101 19l110 43z" />
    <glyph glyph-name="circumflex" unicode="&#x2c6;" horiz-adv-x="1569" 
d="M1163 258l-86 86l-37 -33l-67 -41l-72 -24l-65 -10h-95l-96 26l-94 31l-70 41l-82 57l-84 72l-65 82l-49 76l-25 69l-22 82l-7 82l7 82l22 94l51 92l49 72l58 47l88 57l100 35l103 15l75 -9l95 -6l55 -10l68 -8l61 -17v205h-954v217h1450v-217h-265v-315l-26 -82l-66 -10
l-100 16l-88 31l-101 20h-96l-88 -10l-49 -25l-64 -22l-59 -41l-57 -72l-37 -82l-17 -123l17 -114l43 -105l57 -71l66 -52l94 -30h94l103 16l59 31l37 57l-31 66l-16 57v82l22 57l45 31l43 16l66 15l90 -21l49 -35l35 -47l22 -90l-22 -106l-43 -72l-57 -67l317 -300l29 -61
l4 -68l-10 -30l-29 -41l-60 -33l-47 -8l-122 106l57 6l49 27l29 41l-92 90l-472 -340l60 -71l-133 -97h-172l-92 105l118 88l-293 334l-118 -88l-86 104l108 88h211l309 -350z" />
    <glyph glyph-name="perthousand" unicode="&#x2030;" horiz-adv-x="1239" 
d="M-4 1724h1233v-219h-1233v219zM1169 1100v-209h-239l-92 -25l-95 -28l-65 -60l-39 -53l-6 -115l39 -102l47 -88l72 -98l53 -60l67 -69l95 -99l-95 19l-61 45l-78 59l-72 59l-92 89l-76 90l-59 88l-51 102l-6 88l39 98l94 60l-332 -2l-131 211h1083z" />
    <glyph glyph-name="Scaron" unicode="&#x160;" horiz-adv-x="1569" 
d="M1176 233l-7 -73l-26 -49l-33 -80l-39 -54l-47 -69l-78 -78l-98 -63l-139 -43l-107 -17l-115 17l-77 18l-78 43l-68 61l-41 68l-24 80l6 82l24 78l54 79l61 50l107 55l-78 68l-58 57l-65 82l-49 76l-25 69l-22 82l-7 82l7 82l22 94l51 92l49 72l58 47l88 57l100 35
l103 15l75 -9l95 -6l55 -10l68 -8l61 -17v205h-954v217h1450v-217h-265v-325l-26 -72l-66 -10l-100 16l-88 31l-101 20h-96l-88 -10l-49 -25l-64 -22l-59 -41l-57 -72l-37 -82l-17 -123l17 -114l43 -105l57 -71l66 -52l94 -30h94l103 16l59 31l37 57l-31 66l-16 57v82l22 57
l45 31l43 16l66 15l90 -21l49 -35l35 -47l22 -90l-22 -106l-43 -72l-57 -67l317 -300l29 -61l4 -68l-10 -30l-29 -41l-60 -33l-47 -8l-122 106l57 6l49 27l29 41l-76 82zM645 262l-123 -57l-84 -51l-59 -78l-6 -88l30 -80l54 -53l104 -9l101 19l120 49l97 55l73 68l60 80
l47 71l43 95l-37 45l-92 -58l-72 -24l-65 -10h-95z" />
    <glyph glyph-name="guilsinglleft" unicode="&#x2039;" horiz-adv-x="1053" 
d="M10 1720h1051v-217l-135 -4v-551l-15 -82l-32 -59l-48 -59l-63 -58l-59 -45l-60 -35l-80 -24l-88 -13l-84 17l-86 31l-61 53l-55 59l-31 80l-23 94v596h-131v217zM362 1499v-592l17 -59l20 -41l62 -23l90 7l63 38l60 56l35 63v551h-347z" />
    <glyph glyph-name="OE" unicode="&#x152;" horiz-adv-x="1212" 
d="M1223 1505l-111 -2l-133 131v86l244 4v-219zM1200 772h-131l-420 223l-147 -75l-158 -84l-149 -88l-123 176l168 71l135 64l104 53l-92 25l-49 39l-51 53l-29 78v73l23 72l75 53l-346 -2v217h592l66 -37l63 -45l66 -63l73 -96l37 -117v-80l-24 -72l-54 -75l-75 -66
l340 -186l106 -4v-107zM578 1505l-86 -37l-58 -69l-24 -64v-71l24 -35l58 -37l92 -16l90 34l57 43l17 21l43 43l18 53v64l-25 45l-43 26h-163z" />
    <glyph glyph-name="c141" horiz-adv-x="1563" 
d="M10 1720h592l66 -37l63 -45l66 -63l73 -96l37 -117v-80l-24 -72l-54 -75l-75 -66l446 -244v678h-88l-133 131v86h567v-217h-131v-1540h-82l-133 172v567l-551 293l-147 -75l-158 -84l-149 -88l-123 176l168 71l135 64l104 53l-92 25l-49 39l-51 53l-29 78v73l23 72l75 53
l-346 -2v217zM578 1505l-86 -37l-58 -69l-24 -64v-71l24 -35l58 -37l92 -16l90 34l57 43l17 21l43 43l18 53v64l-25 45l-43 26h-163z" />
    <glyph glyph-name="c142" horiz-adv-x="1563" 
d="M926 844l-277 151l-147 -75l-158 -95l-149 -77l-123 176l168 71l135 64l104 53l-92 25l-49 39l-51 53l-29 78v73l23 72l75 53l-346 -2v217h592l66 -37l63 -45l66 -63l73 -96l37 -117v-80l-24 -72l-54 -75l-75 -66l446 -244v678h-88l-133 131v86h567v-217h-131v-1540h-82
l-133 184v269l-47 -117l-37 -53l-47 -64l-63 -43l-74 -26l-76 -9h-65l-58 25l-65 45l-43 62l-29 81v89l18 63l35 63l-473 -268l-98 133zM1075 762l-334 -176l-28 -90v-80l18 -64l35 -53l43 -25h86l100 37l60 41l47 54l39 55l30 53l21 64l8 53v71zM578 1505l-86 -37l-58 -69
l-24 -64v-71l24 -35l58 -37l92 -16l90 34l57 43l17 21l43 43l18 53v64l-25 45l-43 26h-163z" />
    <glyph glyph-name="c143" horiz-adv-x="2019" 
d="M889 870l-234 123l-147 -75l-158 -87l-149 -88l-123 177l168 73l135 62l104 55l-92 25l-49 36l-51 54l-29 80v71l23 74l75 53l-346 2v211h592l66 -37l63 -45l66 -61l74 -98l36 -117v-78l-24 -74l-53 -76l-76 -65l465 -256l86 45l47 16v633h-176l-133 131v86h964v-217
h-440l2 -633l86 -16l96 -39l80 -53l51 -53l25 -54l22 -77v-91l-16 -81l-39 -72l-72 -88l-88 -78l-92 -74l-53 -35l-258 134l86 28l43 15l74 45l65 53l70 47l59 59l43 82l8 74l-20 59l-35 54l-61 47l-70 16h-80l-59 -18l-58 -27l-59 -53l-63 -72l-48 -70l-43 -63l-129 98
l43 82l80 88l-86 45l-49 19l-61 -10l-43 -19l-54 -10l-88 -43l-55 -45l-49 -43l-35 -82l-6 -88l12 -80l35 -82l49 -72l80 -88l70 -63l71 -53l66 -54l51 -26l53 -29l6 -41l-122 41l-97 55l-98 54l-72 43l-57 47l-86 69l-55 54l-47 63l-39 74l-25 71l-10 99l10 88l31 78l45 47
l65 53l86 35l95 26h135zM584 1503l-86 -39l-58 -67l-24 -64v-73l24 -35l58 -37l92 -17l90 35l57 45l17 19l43 45l18 53v62l-24 45l-43 28h-164z" />
    <glyph glyph-name="c144" horiz-adv-x="1534" 
d="M1204 551l-4 151l-551 293l-147 -75l-158 -84l-149 -88l-123 176l168 71l135 64l104 53l-92 25l-49 39l-51 53l-29 78v73l23 72l75 53l-346 -2v217h592l66 -37l63 -45l66 -63l73 -96l37 -117v-80l-24 -72l-54 -75l-75 -66l446 -244v678h-88l-133 131v86h567v-217h-131
v-1540h-82l-133 172l4 182l-88 -81l-67 -50l-72 -34l-66 -19l-67 -14h-76l-90 14l-60 25l-67 35l-72 59l-53 59l-51 70l-29 74l-6 59l6 55l27 62l47 59l47 41l72 35l104 31l94 10l64 -4l76 -8l84 -35l79 -45l66 -56l41 -41zM743 662l-110 -29l-78 -53l-41 -64l-6 -76l14 -65
l29 -47l47 -47l82 -29l74 -10l88 14l69 27l68 34l51 35l45 33l35 31l37 39l31 41l-66 49l-70 39l-71 30l-101 35zM578 1505l-86 -37l-58 -69l-24 -64v-71l24 -35l58 -37l92 -16l90 34l57 43l17 21l43 43l18 53v64l-25 45l-43 26h-163z" />
    <glyph glyph-name="quoteleft" unicode="&#x2018;" horiz-adv-x="674" 
d="M264 1798q28 34 53 45.5t56 11.5q35 0 65.5 -17t48 -47t17.5 -67q0 -61 -46.5 -102t-113.5 -41q-87 0 -145 72t-58 180q0 117 77.5 207.5t201.5 126.5v-41q-64 -27 -118 -105q-26 -40 -39 -76.5t-13 -72.5l4 -31z" />
    <glyph glyph-name="quoteright" unicode="&#x2019;" horiz-adv-x="727" 
d="M397 1960q-50 -57 -106 -57q-57 0 -95 38t-38 95q0 58 46 99.5t113 41.5q56 0 102.5 -32t73.5 -90t27 -130q0 -74 -34.5 -142t-98 -117t-145.5 -75v41q68 29 120 105q26 38 39 75t13 76l-2 18l-6 23z" />
    <glyph glyph-name="quotedblleft" unicode="&#x201c;" horiz-adv-x="1264" 
d="M719 1802q30 33 52.5 45.5t53.5 12.5q35 0 64 -17t47 -48t18 -69q0 -61 -44.5 -101t-112.5 -40q-56 0 -102.5 31.5t-73.5 88.5q-11 26 -18 59.5t-7 68.5q0 116 75 210t199 128v-45q-65 -25 -117.5 -102.5t-52.5 -151.5q0 -35 19 -70zM240 1802q29 32 53 45t57 13
q35 0 62.5 -17.5t45 -49t17.5 -67.5q0 -62 -43 -101.5t-110 -39.5q-58 0 -105 31t-73.5 88.5t-26.5 128.5q0 117 76 210t204 128v-45q-67 -25 -118.5 -101.5t-51.5 -152.5q0 -40 13 -70z" />
    <glyph glyph-name="quotedblright" unicode="&#x201d;" horiz-adv-x="1292" 
d="M422 1966q-29 -33 -53 -48t-54 -15q-36 0 -65 18t-46.5 50.5t-17.5 70.5q0 40 20.5 72t57.5 50.5t80 18.5q57 0 102.5 -33t72 -91.5t26.5 -129.5q0 -113 -75 -203.5t-202 -128.5v37q44 18 84 61t63 95t23 100q0 41 -16 76zM901 1966q-34 -35 -56 -50q-23 -13 -54 -13
q-51 0 -88 41.5t-37 97.5q0 59 45 100t108 41q57 0 104 -32.5t74 -90t27 -131.5q0 -76 -34.5 -142.5t-97.5 -115t-149 -74.5v37q46 18 83.5 59.5t62 95t24.5 101.5q0 40 -12 76z" />
    <glyph glyph-name="bullet" unicode="&#x2022;" horiz-adv-x="2152" 
d="M938 999l215 129q44 25 121 49q40 12 83 19.5t89 7.5h12q96 0 170.5 -50.5t118 -126.5t49.5 -144v-70q0 -133 -47 -241.5t-139 -190.5l-41 -35l-129 232q4 5 8 7q8 6 30 18q36 20 74.5 53t68.5 95t30 156q0 32 -12.5 69.5t-40.5 65t-70 27.5q-58 0 -141.5 -29.5t-159 -75
t-111.5 -85.5q32 -26 85 -105q26 -39 39 -87t13 -109v-15q0 -49 -16.5 -101t-49.5 -106q-63 -104 -163 -171q-49 -33 -102 -50.5t-107 -17.5l-6 -4q-146 0 -265 76.5t-202 184t-130 201.5q-42 90 -44 109l-8 49l8 55l-4 -6q0 -28 51 -100t135 -155t185 -139t198 -56
q131 0 232 102q65 70 65 174q0 60 -15 108t-28 72q-40 57 -131.5 82t-181.5 25q-41 0 -81.5 -6t-41.5 -10h4l-115 202l4 -3l7 -1q35 0 130.5 27.5t168.5 66.5q45 24 92.5 69.5t75.5 93.5q14 25 21 46t7 41v6q0 98 -59.5 154.5t-167.5 56.5h-27q-62 0 -141.5 -36
t-142.5 -85.5t-99 -95.5l-18 -15q-15 -9 -15 -17l2 -7l5 -8l-138 219q24 20 90 60q33 20 75 39t100 41q112 41 235 41h41q56 0 130.5 -18.5t153 -85.5t111.5 -200l1 -12l3 -20l1 -21l1 -28q0 -54 -11 -101q-9 -49 -34 -84q-37 -58 -95 -102q-25 -19 -52 -37q-22 -15 -39 -25
l49 -22zM1915 1839h51q1 -1 2.5 -5.5t1.5 -14.5q0 -44 -21 -126.5t-69.5 -165t-141.5 -145.5q-45 -30 -102 -47.5t-120 -17.5l-11 -1l-8 -1q-116 0 -205 66t-141.5 159.5t-80.5 180.5t-28 118q1 5 2 6l3 4l59 6q-4 -4 -4 -8q0 -41 43.5 -130.5t134 -163.5t223.5 -74
q110 0 192.5 39t130 99.5t68.5 119t21 102.5zM1346 1855l170 193l174 -193l-174 -194z" />
    <glyph glyph-name="endash" unicode="&#x2013;" horiz-adv-x="1077" 
d="M0 819h1077v-164h-1077v164z" />
    <glyph glyph-name="emdash" unicode="&#x2014;" horiz-adv-x="2154" 
d="M0 819h2154v-164h-2154v164z" />
    <glyph glyph-name="tilde" unicode="&#x2dc;" horiz-adv-x="1321" 
d="M1311 1499h-838l-53 -29l-45 -26l-43 -47l-27 -64v-51l35 -47l53 -37l74 -20l78 6l57 10l47 25l35 22l43 29l184 -199h-69l-94 -18l-70 -29l-68 -29l-67 -49l-51 -57l-25 -76v-80l14 -53l35 -59l45 -43l41 -33l64 -35l75 -6h62l63 12l64 23l57 28l49 35l66 57l49 50
l43 63l29 70v-344l-76 -64l-82 -43l-78 -26l-76 -15h-88l-96 15l-88 26l-84 43l-59 41l-64 57l-53 58l-33 47l-41 63l-18 72l-11 82l21 78l41 57l47 47l72 64l-72 6l-88 22l-57 29l-64 41l-53 62l-19 63l19 74l35 47l63 55l-233 4v217h1323v-221z" />
    <glyph glyph-name="trademark" unicode="&#x2122;" 
d="M-387 621v-181l-725 -485l-92 121z" />
    <glyph glyph-name="scaron" unicode="&#x161;" horiz-adv-x="1346" 
d="M-12 1720h1353l5 -221h-265v-352h-694v-4q-12 0 -32.5 -11.5t-20.5 -48.5v-157l24 -66l62 -6l55 37l53 33l62 22l76 19l77 2h72l111 -21l53 -20l63 -41l54 -49l51 -62l35 -61l30 -99l11 -118l-17 -93l-35 -71l-41 -76l-69 -61l-62 -41l-67 -37l-76 -25l-100 -29l-105 -12
l262 -239l5 2h6q15 0 30 -1.5t35 -9.5q29 -12 29 -43l-4 -2q0 -28 -19 -55t-43 -27q-32 0 -69 37l-322 332l-74 18l-73 29l-58 25l-65 37l-58 41l-38 51l-19 59l4 47l15 45l38 47l70 19l49 -6l41 -23l29 -24l47 -37l39 -49l29 -37l43 -25l122 19l129 43l111 67l64 66l28 69
l15 95l-2 69l-23 60l-45 32l-84 6l-88 -20l-51 -31l-56 -35l-61 -30l-66 -33l-88 -6l-65 18l-74 39l-53 41l-76 78l-59 88l-35 80l-23 84v92l23 66l41 47l63 39l107 16h530v178h-880z" />
    <glyph glyph-name="guilsinglright" unicode="&#x203a;" horiz-adv-x="1053" 
d="M10 1720h217l310 -309v-485h481v-172h-481v-222h-175l-221 222v172h176v444l-131 133h-176v217zM627 1720h434v-217h-258z" />
    <glyph glyph-name="oe" unicode="&#x153;" horiz-adv-x="1411" 
d="M12 1720h1317v-217h-176l4 -526l-20 -70l-54 -53l-110 -45l-211 -8l-90 -10l-80 -19l-84 -24l-57 -29l-66 -53l-39 -45l-31 -78v-64l19 -73l51 -72l66 -43l141 -17l98 17l84 26l111 56l92 61l82 53l94 86l168 -186l-74 -43l-96 -63l-80 -45l-110 -35l-70 -33l-78 -10
l-80 -11l-100 -8l-84 8l-98 21l-78 33l-90 55l-72 61l-66 89l-32 73l-7 99l27 61l41 70l55 47l68 35l88 24l-76 29l-41 35l-39 39l-41 55l-24 57l-19 64v409h-133v217zM498 1499l438 -493l-4 493h-434zM365 1380v-366l14 -27l35 -26h354z" />
    <glyph glyph-name="Ydieresis" unicode="&#x178;" 
d="M-1006 -700h656v-213h-656v213z" />
    <glyph glyph-name="nonbreakingspace" unicode="&#xa0;" horiz-adv-x="1077" 
 />
    <glyph glyph-name="exclamdown" unicode="&#xa1;" horiz-adv-x="1346" 
d="M838 1720l-41 35l-43 43l-54 55l-57 62l-57 80l-43 71l-27 64l-12 72l6 63l12 64l29 51l45 47l59 37l58 28l69 17l84 -4l58 -13l71 -30l76 -52l53 -59l47 -74l39 -84l15 -73h-43l-25 47l-22 35l-35 41l-47 38l-52 31l-59 29l-76 10l-78 -10l-51 -25l-37 -41l-20 -51
l-2 -70l12 -81l31 -76l45 -68l59 -74l47 -53l39 -37l60 -41l370 -4l5 -221h-265v-352h-694v-4q-12 0 -32.5 -11.5t-20.5 -48.5v-157l24 -66l62 -6l55 37l53 33l62 22l76 19l77 2h72l111 -21l53 -20l63 -41l54 -49l51 -62l35 -61l30 -99l11 -118l-17 -93l-35 -71l-41 -76
l-69 -61l-62 -41l-67 -37l-76 -25l-100 -29l-105 -12l262 -239l5 2h6q15 0 30 -1.5t35 -9.5q29 -12 29 -43q0 -29 -20 -55.5t-46 -26.5q-34 0 -69 35l-322 332l-74 18l-73 29l-58 25l-65 37l-58 41l-38 51l-19 59l4 47l15 45l38 47l70 19l49 -6l41 -23l29 -24l47 -37l39 -49
l29 -37l43 -25l122 19l129 43l111 67l64 66l28 69l15 95l-2 69l-23 60l-45 32l-84 6l-88 -20l-51 -31l-56 -35l-61 -30l-66 -33l-88 -6l-65 18l-74 39l-53 41l-76 78l-59 88l-35 80l-23 84v92l23 66l41 47l63 39l107 16h530v178h-880l4 221h850z" />
    <glyph glyph-name="cent" unicode="&#xa2;" horiz-adv-x="592" 
d="M358 1716l232 4v-217h-162v-1499h-82l-131 131v1368h-209v217l230 -4q0 170 -54.5 320t-191.5 205q-21 8 -53 8q-65 0 -124 -52.5t-77 -130.5q-4 -21 -7 -49.5t-3 -56.5q2 -25 3.5 -52.5t1.5 -47.5l5 -109l-217 4v-4q-7 0 -15 57q-4 29 -6 57t-2 64q0 108 8 148
q15 65 50.5 119.5t91.5 99t120.5 68.5t129.5 24q37 0 51 -1.5t37 -6.5q133 -38 213 -138.5t116 -225.5q19 -65 31 -127t12 -117l1 -26z" />
    <glyph glyph-name="sterling" unicode="&#xa3;" horiz-adv-x="1321" 
d="M12 1720h1317v-217h-457l58 -45l49 -53l39 -57l12 -82l6 -97l-30 -92l-70 -90l-88 -57l94 -35l111 -53l63 -47l55 -82l46 -92v-107l-13 -129l-57 -109l-76 -90l-104 -73l-170 -47h-135l-146 57l-131 106l-92 111l-88 135l-82 146l-45 120l22 54l99 -127l69 -101l84 -110
l103 -92l82 -62l94 -35h123l118 43l95 74l51 90l18 103l-12 81l-37 62l-76 82l-88 47l-121 6l-159 -14l-109 125l-49 73l143 -10l109 29l90 43l76 67l45 82l-12 88l-39 76l-49 53l-56 19l-61 16h-103l-82 -35l-61 -38l-80 -54l-29 -49l-122 176h-142v217z" />
    <glyph glyph-name="currency" unicode="&#xa4;" horiz-adv-x="1720" 
d="M0 1720h1714v-217h-911l104 -45l76 -82l45 -100v-100l-27 -74l-55 -82l-104 -90l71 -17l82 45l101 54l114 65l78 25h74l76 -12l71 -31l58 -53l35 -58l43 -82l22 -92l2 -100l-6 -96l-25 -93l-41 -71l-63 -82l-78 -64l-4 117l-55 82l-64 47l84 66l53 69l46 60l6 79l-13 68
l-41 55l-69 31l-105 -18l-84 -68l-82 -72l70 -125l19 -110v-127l-33 -111l-68 -100l-115 -88l-135 -57l-125 -9l-114 9l-101 38l-110 72l-107 111l-88 135l-67 127l-43 137l-25 98l43 11l86 -156l88 -135l100 -119l107 -82l129 -27h133l123 56l70 71l43 82l6 111l-19 72
l-37 63l-57 64l-104 47l-146 8l-125 6l-129 193h123l125 20l115 53l76 72l6 92l-19 72l-45 63l-69 58l-70 24h-82l-117 -45l-88 -43l-88 -76l-49 76l-33 53l-35 35h-147v217z" />
    <glyph glyph-name="yen" unicode="&#xa5;" horiz-adv-x="2288" 
d="M1094 1055q19 16 81 55q57 34 164 74q53 19 108 29t114 10q101 0 189 -57.5t140 -143.5t52 -156v-12q0 -307 -226 -514l-131 221h-4q5 6 10.5 10.5t27.5 20l41 30t36 30.5q35 32 67 95q16 31 24.5 68t8.5 76q0 29 -21 76.5t-57.5 81.5t-75.5 34q-96 0 -177 -42t-208 -169
l-4 -8l-2 -4q0 -7 8 -18l19 -19l16 -14q14 -14 28 -49t24 -83q5 -22 8.5 -47t3.5 -46v-23q0 -123 -60 -218.5t-153 -148.5t-184 -53q-167 0 -310 84.5t-240 195.5t-163 216l-49 78l-17 26l17 56q52 -79 101.5 -141t104.5 -114q50 -47 103 -85.5t104 -63.5q104 -49 197 -49
q72 0 136 27.5t116 79.5q69 72 69 182q0 62 -18 116.5t-29 73.5q-33 51 -97 73q-30 10 -65 16t-71 6q-52 0 -93 -11q-43 -9 -44 -16l-146 180q101 13 211 57q54 22 100.5 51.5t85.5 67.5q77 74 89 174v17q0 53 -30.5 100t-78.5 77t-90 30h-23q-129 -21 -240.5 -95.5
t-193.5 -191.5l-164 176h-4q0 15 83 77q40 30 92 58.5t115 54.5q124 50 255 50h39q50 0 95.5 -15.5t92.5 -44.5q85 -55 135 -142.5t62 -197.5v-18q0 -58 -27 -125.5t-76 -118.5t-108 -70zM2058 1884l43 -10q2 -6 3 -14.5t1 -12.5q0 -52 -18.5 -127t-67.5 -158t-138 -138.5
t-214 -55.5l-6 2q-130 0 -224 73t-147.5 166.5t-80.5 180t-27 104.5l2 2l61 7l-3 -5l-1 -4q0 -39 44.5 -129.5t135 -164.5t221.5 -74q150 0 243 63t133 148.5t40 146.5zM1485 1903l170 192l172 -192l-172 -195z" />
    <glyph glyph-name="brokenbar" unicode="&#xa6;" 
d="M-1053 -117h187l63 -22l47 -31l64 -53l37 -64l24 -110v-111l-28 -123l-56 -78l-69 -59l-80 -39l-54 -16l-88 -8l-100 16l-94 47l-100 84l-127 129l-99 123l-157 192l67 -2l64 -63l112 -121l123 -117l107 -65l94 -29h96l94 35l60 47l51 76l14 69l-8 86l-33 54l-76 61
l-81 8l-84 -22l-54 -53h-104l41 75l63 54z" />
    <glyph glyph-name="section" unicode="&#xa7;" 
d="M-856 -836h-186l-64 23l-47 31l-70 67l-51 82l-24 90v109l38 110l56 82l76 62l81 35l54 16l88 10l102 -16l94 -47l101 -86l127 -129l96 -123l158 -193l-66 -2l-59 64l-115 119l-125 126l-108 62l-95 29h-94l-94 -35l-59 -47l-52 -76l-16 -70l10 -84l31 -53l76 -63l82 -7
l86 23l53 53h104l-41 -76l-63 -53z" />
    <glyph glyph-name="dieresis" unicode="&#xa8;" horiz-adv-x="1720" 
d="M0 1720h1714v-217l-700 -4v-469l57 -43l158 -57l59 -17l-37 107l-6 92l25 82l63 47h107l100 -37l27 -63l18 -64l-12 -82l-51 -71l-70 -47l33 -46l43 -63l69 -82l35 -82v-82l-18 -100l-35 -64l-51 -55l-70 -45l-69 -35l-154 217h59l70 17l51 39l43 43l6 71l-18 76l-37 88
l-57 49l-199 19l-88 43l-53 20v-901h-86l-123 125v485l-488 -292l-168 163l123 37l533 314v153l-101 31l-133 20l-129 -20l-118 -53l-82 -62l-45 82l-66 82l-51 53l110 54l140 47l151 10l105 -21l88 -36l69 -35l62 -35v393l-803 4v217z" />
    <glyph glyph-name="copyright" unicode="&#xa9;" horiz-adv-x="1962" 
d="M0 1720l1962 4v-221h-942v-483l51 -33l158 -63l92 -19l-57 62l-19 73v90l31 74l88 37h88l88 -47l33 -43l12 -92l-18 -72l-45 -63l-52 -47l27 -46l49 -18l45 -29l35 -43l-80 -55l-88 -65l-82 -93l-24 -71l12 -82l51 -64l88 -8l111 55l106 99l133 -99l-45 -36l-63 -46
l-76 -36l-61 -19l-92 8l-101 29l-88 64l-63 81l-25 82l12 82l56 92l57 62l63 53l-38 57l-37 -18l-193 18l-94 54l-51 20v-893l-88 -8l-123 148v456l-488 -286l-168 163l123 37l533 320v135l-101 43l-133 20l-129 -20l-118 -53l-82 -62l-45 82l-66 82l-51 53l110 54l140 47
l151 10l105 -21l88 -36l69 -35l62 -51v409l-803 4v217z" />
    <glyph glyph-name="ordfeminine" unicode="&#xaa;" horiz-adv-x="2073" 
d="M10 1720l2054 4l2 -225l-827 4v-319l117 10l114 -25l76 -57l76 -92l57 -107l25 -145l-18 -137l-37 -74l-70 -82l-94 -72l-111 -45l-51 -26l-16 -4l-97 -17l-32 -43l39 -57l69 -35l100 -37h117l125 56l115 73l59 54l51 63l158 -156l-74 -55l-71 -35l-101 -45l-155 -28
h-119l-111 20l-114 27l-101 45l-82 71l-30 74l-6 62l30 75l82 35l133 47l84 51l64 58l63 61l13 111l-13 110l-51 82l-72 64l-157 10l-82 -49l-76 -72l-59 -92l-39 -61l-49 -82l-158 147l106 117l52 53l-109 47l-61 17h-93l-106 -7l-103 -47l-88 -73l-41 -82l-12 -111
l17 -115l36 -102l70 -111l94 -88l88 -65l52 -35l47 -29l69 -24l64 -19l47 -10l2 -53l-143 24l-138 58l-170 88l-94 72l-84 81l-88 103l-57 100l-39 101v127l26 129l64 96l94 82l135 57l158 25l135 -25l101 -37l88 -45l79 -57l66 74v327h-1014v217z" />
    <glyph glyph-name="guillemotleft" unicode="&#xab;" horiz-adv-x="2101" 
d="M1184 66l82 47l-101 45l-82 71l-30 74l-6 62l30 75l82 35l133 47l84 51l64 58l63 61l13 111l-13 110l-51 82l-72 64l-157 10l-82 -49l-76 -72l-59 -92l-39 -61l-49 -82l-158 147l106 117l52 53l-109 47l-61 17h-93l-106 -7l-103 -47l-88 -73l-41 -82l-12 -111l17 -115
l36 -102l70 -111l94 -88l88 -65l52 -35l47 -29l69 -24l64 -19l47 -10l2 -53l-143 24l-138 58l-170 88l-94 72l-84 81l-88 103l-57 100l-39 101v127l26 129l64 96l94 82l135 57l158 25l135 -25l101 -37l88 -45l79 -57l66 74v327h-1014v217l2083 4v-221h-854l2 -319l115 10
l114 -25l76 -57l76 -92l57 -107l25 -145l-18 -137l-37 -74l-70 -82l-94 -72l-111 -45l-51 -26l-16 -4l-97 -17l-32 -43l39 -57l69 -35l100 -37h117l125 56l115 73l59 54l51 63l158 -156l-74 -55l-71 -35l-101 -45l-155 -28l-76 -9l-131 -16l-68 -29l-37 -47l-16 -51l39 -55
l68 -35l102 -39h117l125 57l114 72l60 55l49 62l158 -154l-72 -57l-72 -35l-102 -43l-154 -29h-121l-108 19l-115 28l-100 45l-82 72l-31 72l-6 63z" />
    <glyph glyph-name="logicalnot" unicode="&#xac;" horiz-adv-x="2073" 
d="M6 1720l2058 4v-221l-567 -4v-233l55 -6l80 -15l72 -45l70 -57l59 -78l33 -86l24 -96l13 -105v-88l-9 -94l-22 -88l-35 -88l-63 -86l-91 -58l-75 -26l-121 2l-90 41l-86 72l-45 49l28 94l103 -64l108 -41l109 37l61 80l51 113l29 149l10 101l-10 84l-16 57l-37 51l-35 27
l-59 22h-99l-63 -30l-66 -60l-57 -73l-47 -95l-57 -129l-48 -110l-55 -129l-61 -111l-88 -111l-103 -71l-131 -41l-137 -6l-100 30l-99 54l-94 73l-80 105l-49 112l-22 105l-5 117l13 102l49 127l59 104l78 78l70 58l98 41l94 16l72 -4l94 -25l74 -47l57 -53l62 -74
l-62 -123l-49 58l-61 41l-70 34l-80 7l-78 -19l-65 -39l-70 -69l-45 -78l-35 -92l-18 -107l4 -123l31 -112l37 -93l63 -69l88 -41l92 12l84 64l76 94l63 127l58 125l63 127l56 135l57 104l63 101l76 71l62 41v250h-1301v217z" />
    <glyph glyph-name="registered" unicode="&#xae;" 
d="M-1561 2626l273 2l123 -25l84 -47l69 -47l51 -55l43 -54l33 -47l31 -65l31 -76l20 -66l19 -88l12 -104v-217h-111l-2 106l-6 113l-14 121l-27 94l-33 70l-36 53l-54 57l-51 29l-63 30l-50 13h-190zM-952 1737l-107 2l-37 76l-55 88l-61 79l-82 60l-95 43l-81 16h-240
l-145 211h315l129 -35l84 -47l70 -53l47 -41l45 -53l41 -60l28 -34l41 -68l47 -74z" />
    <glyph glyph-name="macron" unicode="&#xaf;" 
d="M-977 2621l270 5l123 -27l86 -47l70 -47l49 -54l45 -53l31 -47l33 -67l30 -76l19 -66l20 -88l13 -104v-211h-115v100l-2 105l-17 129l-28 94l-31 69l-45 64l-47 47l-49 35l-64 24l-51 15h-188zM-373 1739l-102 -2l-39 75l-53 89l-78 81l-68 56l-94 45l-82 16h-239
l-146 211h316l129 -35l86 -47l69 -53l47 -41l43 -55l41 -60l29 -34l41 -66l47 -76zM66 2535l98 -6l69 -41l70 -71l41 -76l35 -117h-39l-47 60l-60 67l-40 29l-70 18l-60 -6l-51 -29l-30 -39l-29 -55l-19 -67l-6 -78l15 -82l28 -60l35 -73l45 -49l49 -68l58 -53h-127
l-109 121l-80 116l-35 113l-12 94l12 101l23 86l37 53l51 53l64 41z" />
    <glyph glyph-name="plusminus" unicode="&#xb1;" horiz-adv-x="539" 
d="M-393 2605l270 -2l123 -18l86 -50l68 -47l51 -53l45 -53l31 -47l30 -66l33 -76l18 -67l19 -88l10 -82l2 -84v-148h133v-219h-133v-1499h-82l-131 133v1366h-176v219l102 -4l-34 82l-56 82l-79 82l-66 53l-94 47l-82 17h-240l-145 211h315l129 -35l88 -53l64 -54l49 -47
l45 -47l41 -55l31 -47l41 -60l41 -71l57 -101h70v101l-7 112l-12 121l-29 94l-32 70l-37 53l-60 54l-45 30l-63 33l-49 12h-189zM666 2544l77 -9l72 -30l41 -37l33 -33l35 -47l18 -31l25 -47l34 -67h-43l-34 51l-58 63l-37 31l-47 25l-49 14l-55 -4l-51 -17l-41 -20l-29 -23
l-25 -32l-18 -37l-12 -53l-6 -58l6 -82l20 -69l33 -76l43 -68l45 -55l43 -47l51 -49h-100l-41 37l-39 38l-31 35l-34 41l-29 41l-25 37l-28 53l-23 52l-12 53l-2 57v53l8 70l18 53l35 60l45 47l47 35l58 24z" />
    <glyph glyph-name="twosuperior" unicode="&#xb2;" horiz-adv-x="1884" 
d="M-6 1720h1890v-217h-794v-491l53 30l63 41l58 33l65 19l45 6h56l61 -13l41 -26l47 -43l47 -53l35 -45l31 -54l34 -71l23 -76l6 -82l-10 -53l-21 -76l-32 -76l-60 -67l-88 -74l-74 -62l-153 215h45l41 19l47 24l47 35l35 29l49 70l35 51l10 69l-6 66l-35 47l-47 35l-57 16
h-82l-58 -22l-47 -29l-55 -31l-80 -55l-69 -55v-842l-31 -53l-76 -47l-76 -29l-71 -12h-115l-43 -23l-29 -35l-4 -57l10 -47l19 -43l45 -47l65 -45l60 -25l69 -12h54l67 12l49 23l33 24l37 35l29 35l30 43l27 41l14 39l23 53l170 -133l-49 -64l-49 -49l-60 -53l-65 -47
l-80 -41l-90 -33l-80 -2l-88 14l-60 23l-63 33l-78 55l-59 57l-52 54l-34 45l-35 49l-29 59l-6 49l23 41l57 27l131 47l63 -43l101 -4l98 22l66 64v100l-131 123v490l-74 -62l-96 -67l-129 -23h-109l-72 14l-63 29l-66 39l-63 47l-64 76l-35 65l-20 60l-4 80l10 94l31 65
l41 60l51 55l68 37l108 41h88l82 -10l88 -47l82 -76l146 -164v565h-883v217zM446 1059l-61 -29l-45 -31l-37 -53l-20 -45l-15 -59l8 -54l11 -51l30 -59l52 -47l86 -29l88 6l59 31l57 39l62 43l51 45l64 59l34 47l-75 74l-68 60l-55 36l-74 33l-72 15z" />
    <glyph glyph-name="threesuperior" unicode="&#xb3;" horiz-adv-x="1884" 
d="M1128 -614q15 72 62.5 135t89.5 100l49 51l53 66l4 76l-28 45l-66 24l-75 -6l-70 -29l-76 -53l-82 -82l-59 -82l-70 54l-57 45l57 71l-45 39l-82 19l-37 -19l-45 -10l-37 -45l-28 -43l-6 -57l28 -64l58 -61l88 -58l69 -34l31 -37h-76l-151 82l-90 71l-70 92l-21 72l9 100
l37 64l75 47l78 25l103 -19l55 -35l51 -18l70 -35l106 78l-22 49l-131 131v490l-74 -62l-96 -67l-129 -23h-109l-72 14l-63 29l-66 39l-63 47l-64 76l-35 65l-20 60l-4 80l10 94l31 65l41 60l51 55l68 37l108 41h88l82 -10l88 -47l82 -76l146 -164v565h-883v217h1890v-217
h-794l4 -514q5 -3 52 26l54 32q18 6 33 19l42 29q24 15 60.5 24t102.5 9q85 0 125 -11t59 -32q13 -14 74 -96q76 -102 76 -217q0 -57 -27 -147q-18 -59 -79 -140l-59 -73.5t-62 -67.5q-61 -59 -70 -61v4l-158 198h45q25 0 114 71.5t105 98.5l35 58l10 69l-6 66l-35 47
l-47 35l-57 16h-82l-58 -22l-47 -29l-55 -31l-80 -55l-69 -55v-795l102 16l106 -10l84 -43l58 -55l39 -66l18 -77l-12 -68l-39 -72l-66 -76l-100 -122q-31 -24 -43 -47t-12 -54q0 -35 35 -35q33 0 87 24t68 40l70 61l49 74l100 -92l-114 -90q-76 -76 -209 -76q-18 0 -35 1
t-32 4q-28 3 -40 7q-17 15 -48.5 61t-31.5 99l2 11zM446 1071l-61 -41l-45 -31l-37 -53l-20 -45l-15 -59l8 -54l11 -51l30 -59l52 -47l86 -29l88 6l59 31l57 39l62 43l61 47l56 45l32 47l-75 86l-68 60l-55 36l-74 33l-72 15z" />
    <glyph glyph-name="acute" unicode="&#xb4;" horiz-adv-x="1778" 
d="M514 610l90 -53l82 -72l64 -92l-31 -35l-88 88l-123 50h-102l-89 -39l-61 -64l-20 -100l32 -82l76 -72l119 -35l117 25l104 47l84 53l82 64v502l-88 -45l-94 -43l-154 -39l-149 18l-115 64l-80 73l-51 66l-33 76l-10 88l6 77l24 74l33 53l37 37l53 39l70 25h145l70 -25
l49 -35l80 -65l94 -82l-18 -39l-94 47l-117 45l-94 8l-121 -43l-64 -75l-12 -88l33 -101l61 -55l109 -27l129 33l76 29l100 53l76 39l49 41v481l-844 4v217h1759v-217h-704v-373l76 54l63 49l80 33l76 20l100 -20l55 -25l58 -47l57 -64l23 -53l26 -106l4 -115l-18 -106
l-41 -101l-47 -71l-199 131l70 51l76 71l30 54l13 82l-19 92l-45 63l-76 8l-82 -28l-77 -43l-113 -82l-92 -72v-512l51 47l78 45l86 37l94 6h88l76 -32l49 -39l51 -60l23 -57l20 -76l4 -125l-18 -108l-41 -101l-47 -57l-199 90l88 68l43 55l39 72l12 110l-18 97l-82 38
l-88 -28l-63 -35l-86 -47l-89 -64l-69 -59v-467l-88 4l-123 123v240l-49 -25l-76 -55l-82 -35l-98 -25l-119 11l-94 24l-90 58l-60 53l-43 63l-26 56l-25 63l-12 92l18 107l39 65l43 45l60 41l73 19l84 4z" />
    <glyph glyph-name="mu" unicode="&#xb5;" horiz-adv-x="1966" 
d="M25 1720h1935v-217l-750 -4l2 -430l82 43l80 29h107l106 -11l88 -18l74 -43l57 -49l31 -53l25 -72l18 -82l8 -111l-14 -98l-25 -90l-57 -111l-43 -63l-66 -64l-81 -47l-164 174l73 37l82 64l82 82l45 73l25 91l4 73l-12 62l-68 45h-459v-926h-82l-133 131v795h-157
l-101 -6l-69 -29l-66 -29l-63 -53l-31 -82l12 -92l37 -82l45 -61l53 -64l76 -74l70 -55l63 -53l-45 -21l-133 74l-78 55l-112 88l-90 93l-62 92l-33 90l6 92l58 72l69 45h-286l-133 217h835l135 -152v508h-970v217z" />
    <glyph glyph-name="paragraph" unicode="&#xb6;" horiz-adv-x="2073" 
d="M12 1720h2067v-217h-705v-434l148 82h182l76 -29l59 -28l57 -45l39 -37l31 -54l37 -63l33 -100v-109l-6 -100l-27 -72l-37 -82l-63 -100l-82 -74l-78 -63l-141 245l90 35l88 53l67 76l43 64l19 63l6 29v53l-19 53l-43 47l-104 17h-375v-926h-82l-133 131v309l-592 -346
l-157 131l743 398l-125 82l-86 4h-106l-109 -35l-72 -39l-82 -53l-53 -54l-168 181l58 37l88 45l94 36l123 35h121l94 -16l94 -27l37 -28l41 -35l57 -47v217h-926l-133 217h924l135 -127v483h-1147v217z" />
    <glyph glyph-name="periodcentered" unicode="&#xb7;" horiz-adv-x="2206" 
d="M0 1720h2200v-217l-754 -4v-434l162 94h125l82 -8l73 -29l56 -28l63 -45l45 -62l49 -82l25 -102l14 -90l-6 -135l-45 -103l-51 -72l-62 -81l-69 -54l-80 -47l-152 219l146 74l86 82l49 82l26 82l13 82l-39 63l-60 25h-446l-4 -926h-78l-133 131v152l-41 -37l-57 -29
l-47 -35l-70 -18h-107l-82 18l-90 54l-82 71l-51 82l-30 47l-15 88l15 50h-140l-53 -29l-35 -62l2 -73l45 -74l78 -100l88 -101l103 -98l96 -76l-103 29l-102 53l-88 66l-90 73l-88 90l-90 99l-31 110v93l25 71l57 53l76 39l86 9h219l57 34l78 39l76 19h151l95 -29l73 -39
l72 -37v193h-1014l-133 217h1012l135 -152v508h-1235v217zM965 741l-64 -10l-63 -39l-56 -61l-28 -45l-13 -82l19 -82l28 -64l62 -36l82 -11l121 21l71 43l76 71l33 68v125l-64 53l-53 29l-61 29z" />
    <glyph glyph-name="periodcentered" unicode="&#x2219;" horiz-adv-x="2206" 
d="M0 1720h2200v-217l-754 -4v-434l162 94h125l82 -8l73 -29l56 -28l63 -45l45 -62l49 -82l25 -102l14 -90l-6 -135l-45 -103l-51 -72l-62 -81l-69 -54l-80 -47l-152 219l146 74l86 82l49 82l26 82l13 82l-39 63l-60 25h-446l-4 -926h-78l-133 131v152l-41 -37l-57 -29
l-47 -35l-70 -18h-107l-82 18l-90 54l-82 71l-51 82l-30 47l-15 88l15 50h-140l-53 -29l-35 -62l2 -73l45 -74l78 -100l88 -101l103 -98l96 -76l-103 29l-102 53l-88 66l-90 73l-88 90l-90 99l-31 110v93l25 71l57 53l76 39l86 9h219l57 34l78 39l76 19h151l95 -29l73 -39
l72 -37v193h-1014l-133 217h1012l135 -152v508h-1235v217zM965 741l-64 -10l-63 -39l-56 -61l-28 -45l-13 -82l19 -82l28 -64l62 -36l82 -11l121 21l71 43l76 71l33 68v125l-64 53l-53 29l-61 29z" />
    <glyph glyph-name="cedilla" unicode="&#xb8;" horiz-adv-x="1884" 
d="M-6 1720h1890v-217h-794v-491l53 30l63 41l58 33l65 19l45 6h56l61 -13l41 -26l47 -43l47 -53l35 -45l31 -54l34 -71l23 -76l6 -82l-10 -53l-21 -76l-32 -76l-60 -67l-88 -74l-74 -62l-153 215h45l41 19l47 24l47 35l35 29l49 70l35 51l10 69l-6 66l-35 47l-47 35l-57 16
h-82l-58 -22l-47 -29l-55 -31l-80 -55l-69 -55v-750h-82l-131 154v469l-590 -381l41 -78l6 -111l-58 -53l-83 -20l-82 39l-45 43l-43 73l-7 90l25 74l362 219l-112 27l-86 55l-64 74l-35 65l-20 60l-4 80l10 94l31 65l41 60l51 55l68 37l108 41h88l82 -10l88 -47l82 -76
l146 -164v565h-883v217zM446 1071l-65 -35l-43 -30l-35 -48l-20 -57l-15 -59l8 -54l11 -51l30 -59l52 -47l86 -29l88 6l59 31l57 39l78 49l51 47l48 51l34 47l-75 74l-68 60l-55 36l-74 33l-72 15z" />
    <glyph glyph-name="onesuperior" unicode="&#xb9;" horiz-adv-x="1884" 
d="M-6 1720h1890v-217h-794v-491l53 30l63 41l58 33l65 19l45 6h56l61 -13l41 -26l47 -43l47 -53l35 -45l31 -54l34 -71l23 -76l6 -82l-10 -53l-21 -76l-32 -76l-60 -67l-88 -74l-74 -62l-153 215h45l41 19l47 24l47 35l35 29l49 70l35 51l10 69l-6 66l-35 47l-47 35l-57 16
h-82l-58 -22l-47 -29l-55 -31l-80 -55l-69 -55v-750h-82l-131 131v490l-74 -58l-629 -399l-133 135l362 219l-112 27l-86 55l-64 74l-35 65l-20 60l-4 80l10 94l31 65l41 60l51 55l68 37l108 41h88l82 -10l88 -47l82 -76l146 -164v565h-883v217zM446 1059l-61 -29l-45 -31
l-37 -53l-20 -45l-15 -59l8 -54l11 -51l30 -59l52 -47l86 -29l88 6l59 31l57 39l62 43l51 45l64 59l34 47l-75 74l-68 60l-55 36l-74 33l-72 15z" />
    <glyph glyph-name="ordmasculine" unicode="&#xba;" horiz-adv-x="1884" 
d="M1030 -45l-22 49l-131 131v490l-74 -62l-96 -55l-121 -41h-119l-86 29l-47 20l-66 39l-63 47l-64 76l-35 65l-20 60l-4 80l10 94l37 82l35 43l51 55l68 37l108 41h88l82 -10l88 -47l82 -76l146 -164v565h-883v217h1890v-217h-794v-491l53 30l63 41l58 33l65 19l45 6h56
l61 -13l41 -26l47 -43l47 -53l35 -45l31 -54l34 -71l23 -76l6 -82l-10 -53l-21 -76l-32 -76l-60 -67l-88 -74l-74 -62l-153 215h45l41 19l47 24l47 35l35 29l49 70l35 51l10 69l-6 66l-35 47l-47 35l-57 16h-82l-58 -22l-47 -29l-55 -31l-80 -55l-69 -55v-795l102 16
l106 -10l84 -43l58 -55l39 -66l18 -77v-68l-18 -72l-45 -71l-52 -56l-71 -61l-158 106l82 37l70 55l53 72l31 82l-7 72l-24 39l-66 24l-75 -6l-70 -29l-76 -53l-82 -82l-59 -82l-70 54l-57 45l57 71l-45 39l-82 19l-47 -11l-47 -22l-31 -31l-22 -53l-6 -57l28 -64l51 -47
l74 -53l64 -43l57 -47h-76l-151 82l-90 71l-70 92l-21 72l9 100l37 64l75 47l78 25l103 -19l55 -35l51 -18l70 -35zM451 1071l-60 -29l-51 -43l-37 -53l-20 -45l-15 -59l8 -54l11 -51l30 -59l52 -47l86 -29l88 6l59 31l57 39l68 43l57 53l52 51l34 47l-75 74l-68 60l-55 36
l-74 33l-72 15z" />
    <glyph glyph-name="guillemotright" unicode="&#xbb;" horiz-adv-x="1563" 
d="M10 1720h1536v-217h-395v-346l-772 2l-41 -53v-51l24 -68l58 -39l72 -12l59 31l76 47l88 41h250l96 -8l80 -41l69 -58l47 -51l48 -68l18 -61v-96l-18 -88l-35 -62l-47 -67l-60 -49l-88 -60l-102 -41l-88 -29v-225l73 60l89 36h75l60 -36l47 -33l35 -55l18 -89l-6 -69
l-19 -70l-34 -69l-60 -60l-51 31l-72 67l47 41l54 50l41 67l12 60l-37 65l-70 4l-81 -39l-60 -49l-63 -67v-377h-70l-98 90v168l-82 -41l-66 -29l-100 10l-70 27l-47 61l-33 68l-14 98l29 107l53 51l66 41h100l98 -41l66 -70v209l-76 29l-78 41l-82 59l-94 78l-88 98l-70 78
l-73 109l-56 78h62l67 -70l64 -78l59 -57l88 -78l88 -51l78 -29l70 -20h108l144 41l88 47l73 67l60 90l16 78l-35 60l-59 51h-70l-69 -4l-60 -31l-67 -35l-60 -41l-116 -37l-113 9l-82 51l-82 55l-88 80l-67 92l-54 78l-2 127l35 49l53 29l90 16h607v172l-914 4v217z
M1405 1204l123 -139l-123 -139l-129 139zM504 70l-60 -47l-24 -60l12 -69l25 -52l57 -37l59 -10l95 29l47 49v109l-60 69l-69 27z" />
    <glyph glyph-name="onequarter" unicode="&#xbc;" horiz-adv-x="1563" 
d="M406 444l-62 70l-47 59l-70 78l-73 109l-56 78h62l67 -70l64 -78l59 -57l88 -78l88 -51l78 -29l70 -20h108l144 41l88 47l73 67l60 90l16 78l-35 60l-59 51h-70l-69 -4l-60 -31l-67 -35l-60 -41l-116 -37l-113 9l-82 51l-82 55l-88 80l-67 92l-54 78l-2 127l35 49l53 29
l90 16h607v172l-914 4v217h1536v-217h-395v-346l-776 2l-37 -53v-51l24 -68l58 -39l72 -12l59 31l76 47l88 41h250l96 -8l80 -41l69 -58l47 -51l48 -68l18 -61v-96l-18 -88l-35 -62l-35 -37l-41 -41v-923h-82l-88 88l4 186l-70 -51l-79 -37h-88l-89 37l-63 70l-25 69l-12 99
l31 110l53 47l88 31h90l101 -51l63 -49v247l-49 -20l-74 -29l-96 -10l-94 10l-76 29l-88 59v-176q0 -56 -52.5 -85t-95.5 -29l-7 1l-5 3l-12 -39l6 -88l47 -88l47 -70l82 -88l94 -90l101 -86l-60 -2l-94 67l-98 80l-78 78l-70 80l-53 78l-47 80l-29 110l15 78l41 57l67 13
l53 -41zM856 78l-74 -8l-73 -70v-88l34 -80l88 -47l95 29l67 41l35 47v61l-55 60l-47 36zM1405 1204l123 -139l-123 -139l-129 139z" />
    <glyph glyph-name="onehalf" unicode="&#xbd;" horiz-adv-x="1563" 
d="M539 356l-60 41l-94 78l-88 98l-70 78l-73 109l-56 78h62l67 -70l64 -78l59 -57l88 -78l88 -51l78 -29l70 -20h108l144 41l88 47l73 67l60 90l16 78l-35 60l-59 51h-70l-69 -4l-60 -31l-67 -35l-60 -41l-116 -37l-113 9l-82 51l-82 55l-88 80l-67 92l-54 78l-2 127l35 49
l53 29l97 16h600v172l-914 4v217h1536v-217h-395v-346l-772 2l-41 -53v-51l24 -68l58 -39l72 -12l59 31l76 47l88 41h250l96 -8l80 -41l69 -58l47 -51l48 -68l18 -61v-96l-18 -88l-35 -62l-47 -67l-60 -49l-47 -33l-4 -807h-88l-88 153l2 568l-74 -19l-82 -10l-67 18v-382
l-19 -70l-57 -39l-72 10l-63 37l-60 51l-75 80l-60 88l-47 78l-26 70l6 59l49 -41l41 -47l78 -100l5 -5l14 -16l34 -35q19 -14 35 -14q15 0 28 25.5t13 74.5v256zM1405 1204l123 -139l-123 -139l-129 139z" />
    <glyph glyph-name="threequarters" unicode="&#xbe;" horiz-adv-x="1626" 
d="M539 356l-60 41l-94 78l-88 98l-70 78l-73 109l-56 78h62l67 -70l64 -78l59 -57l88 -78l88 -51l78 -29l70 -20h108l144 41l88 47l73 67l60 90l16 78l-35 60l-59 51h-70l-69 -4l-60 -31l-67 -35l-60 -41l-116 -37l-113 9l-82 51l-82 55l-88 80l-67 92l-54 78l-2 127l35 49
l53 29l97 16h596v172l-910 4v217h1536v-217h-395v-346l-776 2l-37 -53v-51l24 -68l58 -39l72 -12l59 31l76 47l88 41h250l96 -8l80 -41l69 -58l47 -51l48 -68l18 -61v-96l-18 -88l-35 -62l-47 -67l-60 -49l-53 -41v-797l-86 -2l-88 131l-4 57l-418 -205l-170 70l594 303v365
l-74 -19l-82 -10l-67 18v-245l-13 -88l-47 -70l-82 -31l-81 31l-60 49l-63 68l-54 80l-41 88l-18 59l-6 70l53 -29l35 -59l65 -99l19 -17l34 -26q15 -8 31 -10q52 0 52 111v198zM1405 1204l123 -139l-123 -139l-129 139z" />
    <glyph glyph-name="questiondown" unicode="&#xbf;" horiz-adv-x="1626" 
d="M573 268l-34 -18l-7 -62l41 -41l54 -8h88l82 8l47 -88l-70 -18l-72 -29l-75 -49l-54 -61l-6 -78l35 -47l94 -13l113 41l82 60l55 57l27 49v297h-400zM444 416l-59 59l-88 98l-70 78l-73 109l-56 78h62l67 -70l64 -78l59 -57l88 -78l88 -51l78 -29l70 -20h108l144 41
l88 47l73 67l60 90l16 78l-35 60l-59 51h-70l-69 -4l-60 -31l-67 -35l-60 -41l-116 -37l-113 9l-82 51l-82 55l-88 80l-67 92l-54 78l-2 127l35 49l53 29l97 16h596v172l-910 4v217h1536v-217h-395v-346l-776 2l-37 -53v-51l24 -68l58 -39l72 -12l59 31l76 47l88 41h250
l96 -8l80 -41l69 -58l47 -51l48 -68l18 -61v-96l-18 -88l-35 -62l-47 -67l-76 -70v-860l-78 -4l-96 86v198l-68 -79l-82 -41l-114 -29l-123 10l-66 41l-47 57l-29 78l13 70l41 78l75 51l76 37h-123l-100 33l-47 36l-23 52l6 59l35 47l60 33l57 18zM1405 1204l123 -139
l-123 -139l-129 139z" />
    <glyph glyph-name="Agrave" unicode="&#xc0;" horiz-adv-x="1626" 
d="M803 268h-88l-76 29l-78 41l-82 59l-94 78l-88 98l-70 78l-73 109l-56 78h62l67 -70l64 -78l59 -57l88 -78l88 -51l78 -29l70 -20h108l144 41l88 47l73 67l60 90l16 78l-35 60l-59 51h-70l-69 -4l-60 -31l-67 -35l-60 -41l-116 -37l-113 9l-82 51l-82 55l-88 80l-67 92
l-54 78l-2 127l35 49l53 29l105 16h588v172l-910 4v217h1536v-217h-395v-346l-776 2l-37 -53v-51l24 -68l58 -39l72 -12l59 31l76 47l88 41h250l96 -8l80 -41l69 -58l47 -51l48 -68l18 -61v-96l-18 -88l-35 -62l-47 -67l-60 -49l-82 -60l-108 -41v-129l190 4l94 -22l66 -47
l47 -66l23 -74l-7 -59l-22 -80l-41 -47l-47 -49l-59 -39l-41 -21l-107 125l72 31l69 41l54 39l28 51v60l-41 36l-69 11h-142l-67 -39v-510h-82l-88 88v438l-201 4l-57 -20l-31 -49l-10 -60l28 -67l48 -60l59 -51l63 -27l-47 -32l-88 32l-63 37l-60 51l-34 37l-31 60l-10 80
l37 65h-132l-88 129h617v92zM1405 1204l123 -139l-123 -139l-129 139z" />
    <glyph glyph-name="Aacute" unicode="&#xc1;" horiz-adv-x="1626" 
d="M938 250h-100l-111 18l-106 37l-60 33l-82 59l-94 78l-88 98l-70 78l-69 103l-60 84h62l67 -70l64 -78l59 -57l88 -78l88 -51l78 -29l70 -20h108l144 41l88 47l73 67l60 90l16 78l-35 60l-59 51h-70l-69 -4l-60 -31l-67 -35l-60 -41l-116 -37l-113 9l-82 51l-82 55
l-88 80l-67 92l-54 78l-2 127l35 49l53 29l88 16h605v172l-910 4v217h1536v-217h-395v-344h-752l-61 -53v-51l24 -68l58 -39l72 -12l59 31l76 47l88 41h250l96 -8l80 -41l69 -58l47 -51l48 -68l18 -61v-96l-18 -88l-35 -62l-47 -67l-60 -58l-53 -51v-1046h-86l-88 133l2 381
l-328 80l-32 -39l-41 -37l-41 -47l-50 -52l-47 -53l-43 -63l-24 -64l-8 -53l16 -47l35 -37l82 -27l92 27l37 41l16 47l-16 55l6 62l29 37l47 18l69 -12l31 -25l27 -57l-17 -78l-35 -51l142 -227h-82l-111 184l-37 -33l-57 -29l-84 -20l-92 12l-70 29l-59 49l-41 82l-10 88
l22 86l41 78l60 69l61 58l72 76l-58 34l-43 43l-24 60l12 76l37 57l53 31l53 10l62 -2l61 -27l58 -35l24 -41l15 -53l-15 -53l-31 -51l-47 -47l215 -31l68 31v307zM522 176l-30 -31l-17 -47l6 -51l27 -43l49 -14l35 33l29 28l28 35l19 31l4 28l-33 41l-55 9zM1405 1204
l123 -139l-123 -139l-129 139z" />
    <glyph glyph-name="Acircumflex" unicode="&#xc2;" horiz-adv-x="1505" 
d="M4 1720h1493v-217h-133v-1540h-82l-125 172v227l-86 -112l-94 -82l-105 -49l-104 -15l-90 9l-64 26l-65 29l-57 33l-60 55l-51 61l-12 89l30 90l74 43l100 47h-362l-76 164l479 -2l-116 53l-64 49l-43 68v94l43 53l127 37h-332l-90 168h860l101 -164h-309l-99 -19
l-71 -40l-54 -58v-71l41 -82l99 -86h305l90 -166h-328l-94 -35l-70 -41l-49 -35l-39 -53l-6 -76l39 -63l66 -31h88l127 18l82 41l96 64l80 78l57 81v971h-1147v217z" />
    <glyph glyph-name="Atilde" unicode="&#xc3;" horiz-adv-x="1642" 
d="M-4 1724h1653v-221h-158v-1540h-82l-133 172v141l-363 -157l-36 -109l-64 -88l-76 -61l-112 -56l-156 -6l-111 37l-71 47l-66 70l-69 94l-66 111l-4 53l41 -6l51 -70l68 -78l86 -57l98 -37l59 -10l93 16l90 56l53 63l22 47l17 70v69l-12 82l-33 66l-53 24l-64 17l-72 -8
l-80 -39l-59 -54l-37 -57l-133 158l47 47l86 47l107 33l121 6l94 -33l65 -14l60 -33l47 -37l28 -41l33 -69l8 -70l304 127l40 35l19 71v263l-76 -52l-76 -47l-106 -53l-107 -33l-82 -14l-120 14l-70 27l-59 43l-70 80l-31 88l6 90l41 76l82 76l113 69l-422 -2l-125 166h920
l125 -166h-283l-100 -41l-95 -67l-69 -84l-21 -95l41 -69l76 -27h68l159 49l176 78l105 64v538h-1280v221z" />
    <glyph glyph-name="Adieresis" unicode="&#xc4;" horiz-adv-x="1626" 
d="M1200 1157l-504 2l82 -69l60 -62l32 -63l21 -86l-6 -95l-21 -63l-35 -53l-69 -64l-111 -31h-92l-70 23l-49 25l-69 47l-58 59l-75 88l-60 96l-53 107l-31 88l-14 70h45l76 -117l53 -80l59 -68l80 -80l94 -47l119 -16l76 23l39 57l12 70l-12 69l-33 62l-61 63l-74 41
l-70 41l-88 129h807v180h-1190v217h1536v-217h-131v-1894h-82l-135 186l-4 488l-481 4l75 -64l60 -63l31 -62l22 -86l-6 -94l-23 -63l-47 -64l-30 -37l-54 -24l-82 -23h-92l-69 23l-52 24l-67 47l-57 60l-76 88l-60 96l-53 107l-33 88l-12 69h45l76 -116l53 -80l60 -68
l77 -80l105 -47l110 -16l76 22l37 58l14 69l-14 68l-31 63l-63 64l-72 41l-69 41l-93 118h801v711z" />
    <glyph glyph-name="Aring" unicode="&#xc5;" horiz-adv-x="1614" 
d="M-10 1720h1626v-217h-131v-1540h-82l-137 182v703l-47 -51l-158 4l-78 41l-16 -60l-15 -73l-34 -78l-52 -68l-88 -71l-110 -41h-117l-100 16l-89 35l-79 55l-78 80l-76 106l-47 88l-23 58l19 37l67 -103l66 -73l65 -58l74 -41l94 -30h107l111 30l79 58l43 57l29 98l2 103
l-24 133l-48 57l-81 31l-89 -17l-86 -34l-71 -47l-51 -56l-164 178l75 48l117 40l115 17l94 -17l76 -24l49 -16l57 -25l45 -41l56 -64l47 -88l22 -71l246 -4l70 135v401h-1280v217z" />
    <glyph glyph-name="AE" unicode="&#xc6;" horiz-adv-x="1614" 
d="M1270 1503h-1280v217l1636 4v-219h-135l-4 -1669h-105l-112 168l4 258l-33 -108l-41 -66l-43 -65l-74 -64l-71 -41l-74 -16h-88l-72 32l-71 56l-33 57l-35 88l10 139l-426 -211l-135 107l1053 485l129 -86l4 461l-262 -100l-11 -74l-22 -59l-33 -78l-51 -68l-88 -71
l-111 -41h-116l-101 16l-88 35l-80 55l-78 80l-75 106l-47 89l-23 57l18 37l68 -103l66 -73l65 -56l74 -41l94 -32h107l110 32l78 56l45 57l29 98l2 103l-8 75l-17 58l-47 57l-82 31l-88 -16l-86 -35l-72 -47l-51 -56l-164 178l76 48l117 41l115 16l88 -6l82 -17l65 -24
l51 -31l49 -51l52 -57l37 -89l22 -55l291 131zM807 346l-35 -96l12 -74l45 -72l66 -32l100 16l74 41l72 80l51 74l43 90l29 67l2 76l-74 27z" />
    <glyph glyph-name="Ccedilla" unicode="&#xc7;" horiz-adv-x="1614" 
d="M1485 1503v-1784h-82l-133 134l4 567l-496 -139l105 -60l75 -45l43 -53l41 -76l19 -92l-2 -66l-29 -71l-22 -45l-41 -37l-72 -41l-88 -27l-74 4l-55 13l-80 24l-70 45l-94 64l-82 71l-82 93l-53 75l-29 62l41 14l105 -96l72 -60l75 -49l99 -57l110 -18l111 14l65 41
l23 63l-6 70l-29 65l-47 52l-80 43l-78 22l-80 19l-114 102l819 229v416l-268 -63l-5 -88l-22 -60l-33 -78l-51 -67l-88 -72l-111 -41h-116l-101 17l-88 32l-80 58l-78 80l-75 106l-47 88l-23 57l18 37l68 -104l66 -72l65 -57l74 -41l94 -31h107l110 31l78 57l45 58l29 96
l2 104l-8 76l-17 57l-47 56l-82 32l-88 -16l-86 -35l-72 -47l-51 -57l-164 180l76 47l117 41l115 16l88 -6l82 -16l65 -25l51 -32l49 -50l52 -57l37 -88l22 -41l291 66l-4 366h-1280v217h1626v-217h-131z" />
    <glyph glyph-name="Egrave" unicode="&#xc8;" horiz-adv-x="1321" 
d="M772 522l-65 -6l-156 23l-84 34l-88 58l-82 61l-80 82l-59 98l-23 115l23 119l59 98l107 56l110 32l162 25l170 -2v184l-772 4v217h1313v-217h-336v-352l-47 -35l-82 14l-101 17l-108 10l-96 -10l-86 -31l-78 -41l-45 -57l-29 -66v-80l25 -71l38 -68l95 -55l100 -27h88
l103 17l96 41l63 51l72 65l63 58l150 -156l-64 -49l-59 -41l-39 -33l-51 -31v-299l-59 -34l-82 16l-101 14l-106 11l-99 -11l-86 -30l-77 -41l-45 -58l-27 -65v-80l25 -72l36 -65l97 -58l100 -24h88l100 14l99 41l63 51l82 66l53 57l148 -153l-64 -52l-59 -41l-70 -47
l-82 -37l-94 -34l-135 -7l-139 15l-82 47l-88 57l-82 64l-78 82l-61 96l-21 115l21 118l61 99l107 57l110 31l160 24h151l29 4v78z" />
    <glyph glyph-name="Eacute" unicode="&#xc9;" horiz-adv-x="1321" 
d="M1118 678l-110 -64l-117 -53v-182l110 -45l68 -53l72 -66l37 -55l22 -74v-76l-6 -96l-43 -66l-68 -75l-88 -60l-82 -37l-112 -20l-117 -12l-98 22l-123 31l-88 57l-82 64l-78 82l-61 96l-21 115l21 118l69 93l99 63l124 47l134 8l127 -30v106l-156 23l-84 34l-88 58
l-82 61l-80 82l-59 98l-23 115l23 119l59 98l107 56l110 32l162 25l160 -2v184l-762 4v217h1313v-217h-336v-352l-47 -35l-82 14l-101 17l-108 10l-96 -10l-86 -31l-78 -41l-45 -57l-29 -66v-80l25 -71l38 -68l95 -55l100 -27h88l103 17l75 45l84 47l72 65l63 58l150 -156z
M913 258l-69 33l-78 12h-121l-113 -33l-86 -30l-77 -41l-45 -58l-27 -65v-80l25 -72l51 -76l82 -47l100 -24h88l100 14l99 41l94 62l51 53l37 84v75l-31 87l-35 43z" />
    <glyph glyph-name="Ecircumflex" unicode="&#xca;" horiz-adv-x="1321" 
d="M778 526l-71 -10l-156 23l-84 34l-88 58l-82 61l-80 82l-59 98l-23 115l23 119l59 98l107 56l110 32l162 25l164 -10v192l-766 4v217h1313v-217h-336v-352l-47 -35l-82 14l-101 17l-108 10l-96 -10l-86 -31l-78 -41l-45 -57l-29 -66v-80l25 -71l38 -68l95 -55l100 -27h88
l103 17l96 41l63 51l72 65l63 58l150 -156l-64 -49l-88 -53l-69 -56v-843h-82l-101 92v205l-88 -109l-98 -55l-98 -11l-101 11l-75 43l-60 45l-35 43l-47 73l-12 97l12 98l60 98l82 54l118 45l127 -23l78 -22l76 -45l51 -43v204zM481 344l-65 -22l-58 -29l-43 -43l-24 -76
v-88l37 -63l98 -54h78l121 41l88 66l65 76l-6 84l-82 55l-72 31l-45 12z" />
    <glyph glyph-name="Edieresis" unicode="&#xcb;" horiz-adv-x="1626" 
d="M539 356l-60 41l-94 78l-88 98l-70 78l-73 109l-56 78h62l67 -70l64 -78l59 -57l88 -78l88 -51l78 -29l70 -20h108l144 41l88 47l73 67l60 90l16 78l-35 60l-59 51h-70l-69 -4l-60 -31l-67 -35l-60 -41l-116 -37l-113 9l-82 51l-82 55l-88 80l-67 92l-54 78l-2 127l35 49
l53 29l97 16l567 -4v180h-881v217h1536v-217h-395v-352l-772 2l-41 -47v-51l24 -68l58 -39l72 -12l59 31l76 47l88 41h250l96 -8l80 -41l69 -58l47 -51l48 -68l18 -61v-96l-18 -88l-35 -62l-47 -67l-60 -49l-47 -44l-4 -796h-88l-88 153l2 568l-74 -19l-82 -10l-67 18v-382
l-19 -70l-57 -39l-72 10l-63 37l-60 51l-75 80l-60 88l-47 78l-26 70l6 59l49 -41l41 -47l78 -100l5 -5l14 -16l34 -35q19 -14 35 -14q15 0 28 25.5t13 74.5v256z" />
    <glyph glyph-name="Igrave" unicode="&#xcc;" horiz-adv-x="1321" 
d="M891 434l-76 -14l-153 12l-105 31l-111 63l-90 76l-110 129l-72 111l-39 84v45l51 -35l54 -86l59 -66l74 -71l59 -45l72 -43l82 -33l104 -23l111 4l96 41l82 54l51 63l23 53l30 58l-14 76l-61 40h-95l-98 -40l-102 -68l-82 -31l-80 10l-82 31l-59 45l-66 84l-53 66
l-29 108l29 97l102 63h496v180l-901 2v219l1335 -4v-217h-264v-264l-45 -45h-559l-45 -41l-7 -53l13 -99l65 -43l76 21l68 55l102 66h231l103 -53l67 -68l50 -96l10 -109l-17 -106l-59 -99l-59 -73v-228l-33 -45h-559l-45 -41l-6 -53l12 -98l65 -43l76 22l68 53l102 66h232
l104 -53l66 -66l49 -98l10 -107l-16 -108l-60 -96l-59 -76l-117 -53l-119 -23l-155 12l-105 31l-108 64l-93 75l-110 129l-72 111l-39 84v45l52 -35l53 -84l59 -67l74 -72l59 -45l72 -43l82 -33l104 -20l111 2l98 41l82 53l49 63l23 54l31 57l-15 76l-61 41h-94l-97 -41
l-104 -66l-82 -33l-80 11l-82 30l-59 45l-66 84l-53 68l-29 107l29 98l102 61h496z" />
    <glyph glyph-name="Iacute" unicode="&#xcd;" horiz-adv-x="1321" 
d="M854 322v110h-192l-105 31l-111 63l-90 76l-110 129l-72 111l-39 84v45l51 -35l54 -86l59 -66l74 -71l59 -45l72 -43l82 -33l104 -23l111 4l96 41l82 54l51 63l23 53l30 58l-14 76l-61 40h-95l-98 -40l-102 -68l-82 -31l-80 10l-82 31l-59 45l-66 84l-53 66l-29 108
l29 97l102 63h496v180l-901 2v219l1335 -4v-217h-264v-264l-45 -45h-559l-45 -41l-7 -53l13 -99l65 -43l76 21l68 55l102 66h231l103 -53l67 -68l50 -96l10 -109l-17 -106l-59 -99l-94 -96v-280l-47 -41l-74 8l-102 14l-111 8l-104 -30l-111 -76l-53 -76l-43 -76l-8 -129
l16 -65l45 -95l66 -75l147 -45h156l-95 75l-55 66l-14 86l14 106l45 66l60 55l81 21l105 -13l82 -53l51 -53l43 -98l16 -107l-16 -65l-37 -64l-57 -53l-76 -53l-111 -35h-110l-141 20l-105 45l-65 54l-82 75l-60 86l-35 74l-38 109v96l28 90l39 84l88 98l96 54l97 41l96 12
h127zM795 -152l-52 -63v-109l35 -86l66 -69l53 16l82 53l29 45l32 74l-10 86l-51 53l-109 33z" />
    <glyph glyph-name="Icircumflex" unicode="&#xce;" horiz-adv-x="1384" 
d="M823 410l-161 22l-105 31l-111 63l-90 76l-110 129l-72 111l-39 84v45l51 -35l54 -86l59 -66l74 -71l59 -45l72 -43l82 -33l104 -23l111 4l96 41l82 54l51 63l23 53l30 58l-14 76l-61 40h-95l-98 -40l-102 -68l-82 -31l-80 10l-82 31l-59 45l-66 84l-53 66l-29 108l29 97
l102 63h496v180h-871v217h1289v-217h-248v-264l-45 -45h-559l-45 -41l-7 -53l13 -99l65 -43l76 21l68 55l102 66h231l103 -53l67 -68l50 -96l10 -109l-17 -106l-36 -76l-60 -84v-1030h-82l-88 88v264h-356v-88h-129l-133 131v82h88v313h-223l2 172h219l176 -219v-266h356
v465z" />
    <glyph glyph-name="Idieresis" unicode="&#xcf;" horiz-adv-x="1321" 
d="M891 420h-68l-161 12l-105 31l-111 63l-90 76l-110 129l-72 111l-39 84v45l51 -35l54 -86l59 -66l74 -71l59 -45l72 -43l82 -33l104 -23l111 4l96 41l82 54l51 63l23 53l30 58l-14 76l-61 40h-95l-98 -40l-102 -68l-82 -31l-80 10l-82 31l-59 45l-66 84l-53 66l-29 108
l29 97l102 63h496v180h-889l-12 221l1335 -4v-217h-264v-264l-45 -45h-559l-45 -41l-7 -53l13 -99l65 -43l76 21l68 55l102 66h231l103 -53l67 -68l50 -96l10 -109l-17 -106l-59 -99l-51 -73v-830l-90 -4l-80 92v140l-53 -54l-78 -45l-105 -22h-118l-91 32l-59 43l-72 76
l-39 53l-26 121l26 107l74 65l76 33l119 21l123 -13l92 -41l65 -43l66 -45v238zM551 195l-90 -13l-64 -53l-22 -63l-2 -76l43 -56l88 -20h121l112 23l94 53l54 41v67l-54 43l-71 33l-60 31h-75z" />
    <glyph glyph-name="Eth" unicode="&#xd0;" horiz-adv-x="1266" 
d="M856 1503h-844v217h1258v-217h-252v-299l-47 -41l-86 6l-101 19h-77l-127 -25l-84 -47l-74 -80l-41 -78l-19 -94l7 -98l30 -94l56 -74l90 -49l114 -29l136 6l-95 76l-55 66l-14 86l14 106l45 66l60 53l81 22l105 -12l82 -53l51 -53l43 -99l10 -77l-20 -89l-27 -63
l-67 -70v-819l-90 -4l-80 92v140l-54 -54l-77 -45l-105 -22l-88 12l-108 35l-66 35l-78 69l-45 70l-22 104l28 107l74 65l76 33l119 21l122 -13l93 -41l65 -43l66 -82v275l-117 -14l-135 20l-105 49l-71 45l-76 78l-72 98l-45 99l-22 69l-7 103l23 108l45 84l72 88l94 53
l98 35l119 11h127l88 -13zM795 860l-52 -63v-111l35 -84l66 -70l53 17l82 53l29 43l32 76l-10 86l-51 53l-109 31zM487 205l-81 -23l-62 -53l-22 -63v-72l40 -60l105 -34l113 8l106 35l92 47l53 41v67l-47 37l-65 35l-74 35h-158z" />
    <glyph glyph-name="Ntilde" unicode="&#xd1;" horiz-adv-x="1239" 
d="M-4 1724h1233v-219h-1233v219zM1169 1100v-209h-239l-92 -25l-95 -28l-65 -60l-39 -53l-6 -115l39 -102l47 -88l72 -98l53 -60l67 -69l95 -99l-95 19l-61 45l-78 59l-72 59l-92 89l-76 90l-59 88l-51 102l-6 88l39 98l94 60l-332 -2l-131 211h1083z" />
    <glyph glyph-name="Ograve" unicode="&#xd2;" horiz-adv-x="1587" 
d="M-12 1720h1599v-217h-149v-1540h-82l-133 172v750l-303 4l-91 -25l-96 -28l-65 -62l-37 -53l-6 -113l37 -104l47 -88l73 -99l54 -59l65 -70l94 -96l-94 19l-59 43l-80 61l-72 59l-92 88l-76 89l-59 88l-49 104l-8 88l38 98l95 60l-330 -4l-133 217h1147v401h-1235v217z
" />
    <glyph glyph-name="Oacute" unicode="&#xd3;" horiz-adv-x="1614" 
d="M-10 1720h1626v-217h-131v-1540h-82l-133 172v709l-410 -201l41 -51l31 -64v-77l-6 -60l-35 -45l-72 -35h-78l-61 35l-43 35l-41 53l-39 70l-8 104l14 64l51 59l107 53l385 193h-516l-103 -10l-84 -35l-47 -53l-24 -84v-99l24 -88l41 -94l66 -98l92 -123l94 -113l88 -88
h-82l-139 119l-100 92l-111 123l-100 137l-53 115l-25 106v113l27 115l51 69l59 54l80 43l119 10h700l107 -113v428h-1280v217z" />
    <glyph glyph-name="Ocircumflex" unicode="&#xd4;" horiz-adv-x="1456" 
d="M662 268v-374l-19 -70l-57 -39l-72 10l-63 37l-60 51l-76 80l-59 88l-47 78l-27 70l6 59l48 -41l40 -47l80 -100q3 -2 7 -5.5t11 -14.5q16 -19 35 -34.5t35 -15.5q15 0 29 24q12 24 12 76v228l-110 63l-84 72l-68 82l-47 76l-24 69l-23 82l-6 82l6 82l23 94l49 92l51 72
l57 47l88 57l101 35l100 15l76 -9l94 -6l57 -10l66 -8l63 -17v205h-954v217h1450v-217h-266v-325l-25 -72l-65 -10l-101 16l-88 31l-102 20h-94l-88 -10l-52 -25l-61 -22l-62 -41l-55 -72l-39 -82l-14 -123l14 -114l45 -105l58 -71l65 -52l94 -30h95l100 16l61 31l37 57
l-30 66l-17 57v82l23 57l43 31l45 16l65 15l88 -21l52 -35l34 -47l23 -90l-23 -106l-45 -72l-55 -67l172 -160l145 -140l29 -61l2 -68l-8 -30l-29 -41l-59 -33l-47 -8l-123 106l55 6l51 27l29 41l-102 125l-170 195l4 -799h-88l-88 153l2 568l-78 -37h-92z" />
    <glyph glyph-name="Otilde" unicode="&#xd5;" horiz-adv-x="1427" 
d="M0 1720h1450v-217h-266v-315l-25 -82l-65 -10l-101 16l-88 31l-102 20h-94l-88 -10l-52 -25l-61 -22l-62 -41l-55 -72l-39 -82l-14 -123l14 -114l45 -105l58 -71l65 -52l94 -30h95l100 16l61 31l37 57l-30 66l-17 57v82l23 57l43 31l45 16l65 15l88 -21l52 -35l34 -47
l23 -90l-23 -106l-45 -72l-55 -67l172 -160l145 -140l29 -61l2 -68l-8 -30l-29 -41l-59 -33l-47 -8l-123 106l55 6l51 27l29 41l-184 205l-2 -1024h-82l-88 88l-4 207l-47 -60l-113 -63l-117 -25l-59 9l-80 10l-76 35l-72 45l-59 59l-45 70l-12 71l12 78l47 62l80 61l-82 27
l-63 24l-54 45l-28 68l6 55l47 53l59 43l-135 5v129l309 -5l-53 39l-57 35l-84 72l-68 82l-47 76l-24 69l-23 82l-6 82l6 82l23 94l49 92l51 72l57 47l88 57l101 35l100 15l76 -9l94 -6l57 -10l66 -8l63 -17v205h-954v217zM498 188l-66 -28l-41 -49l-18 -64l18 -59l35 -45
l59 -13l52 4l47 35l24 43l148 -166l-107 -16l-86 -35l-78 -45l-47 -53l-6 -70l19 -71l41 -41l86 -11l106 17l84 35l80 45l41 43l43 63l29 78l4 403h-467z" />
    <glyph glyph-name="Odieresis" unicode="&#xd6;" horiz-adv-x="1626" 
d="M10 1720h1536v-217h-352v-397h-657l-58 -25l-28 -51l-5 -59l21 -29l49 -45l53 -18l361 4l145 -176h-491l-92 -21l-66 -35l-53 -59l-41 -64l-21 -59v-78l29 -74l33 -43l59 -41l53 -28l95 -29h104l117 19l53 20l53 43l-37 53l-10 70l23 59l53 45l104 19l97 -19l69 -59
l13 -88l-13 -70l-35 -63l-41 -51l373 -369h-180l-270 307l-66 -45l-98 -35l-146 -18l-94 10l-86 33l-71 39l-66 51l-80 61l-82 86l-55 82l-49 84l-13 88l21 105l53 88l66 53l53 35l66 29l92 16l-101 59l-63 45l-53 62l-23 55v60l16 53l43 45l68 33l107 16l487 -2v223h-969
v217z" />
    <glyph glyph-name="multiply" unicode="&#xd7;" horiz-adv-x="1669" 
d="M1520 -92l-9 61l21 54l-27 59l-26 -51l-45 -72l-66 -70l-70 -69l-73 -53l-84 -43l-105 -27l-112 -19l-95 11l-110 28l-68 41l-26 37l-39 51l-13 78l19 80l41 78l-193 -45l-118 10l-86 45l-60 68l-35 98l13 98l22 50h-113v122h205l47 -32l7 -62l-7 -53v-70l7 -78l40 -63
l58 -35h135l84 60l51 63l23 59l-41 17l-82 57l-86 72l-66 82l-47 76l-26 69l-21 82l-6 82l6 82l21 94l51 92l51 72l55 47l88 57l103 35l100 15l76 -9l94 -6l57 -10l66 -8l63 -17v205h-1179v217h1700v-217h-291v-309l-25 -88l-67 -10l-101 16l-88 31l-100 20h-94l-88 -10
l-52 -25l-63 -22l-59 -41l-58 -72l-37 -82l-16 -123l16 -114l43 -105l58 -71l65 -52l96 -30h95l100 16l59 31l39 57l-32 66l-15 57v82l21 57l45 31l43 16l67 15l88 -21l50 -35l34 -47l23 -90l-23 -106l-43 -72l-57 -67l174 -160l145 -140l27 -61l4 -68l-10 -43l-35 -45
l-61 -8zM1368 223l-102 121l-66 -41l-90 -45l-139 -18l-66 -35l-61 -45l-41 -43l-31 -51l-12 -89l6 -77l25 -54l53 -51l80 -10l104 27l94 61l66 61l65 78l54 80l39 78z" />
    <glyph glyph-name="Oslash" unicode="&#xd8;" horiz-adv-x="1569" 
d="M1176 233l-7 -73l-26 -49l-33 -80l-39 -54l-59 -88l-66 -69l-108 -53l-138 -43l-98 -17l-115 17l-77 18l-78 43l-68 61l-41 68l-24 80l6 82l24 78l54 79l61 50l107 55l-78 68l-58 57l-65 82l-49 76l-25 69l-22 82l-7 82l7 82l22 94l51 92l49 72l58 47l88 57l100 35
l103 15l75 -9l95 -6l55 -10l68 -8l61 -17v205h-954v217h1450v-217h-265v-325l-26 -72l-66 -10l-100 16l-88 31l-101 20h-96l-88 -10l-49 -25l-64 -22l-59 -41l-57 -72l-37 -82l-17 -123l17 -114l43 -105l57 -71l66 -52l94 -30h94l103 16l59 31l37 57l-31 66l-16 57v82l22 57
l45 31l43 16l66 15l90 -21l49 -35l35 -47l22 -90l-22 -106l-43 -72l-57 -67l317 -300l29 -61l4 -68l-10 -30l-29 -41l-60 -33l-47 -8l-122 106l57 6l49 27l29 41l-76 82zM645 262l234 -293l73 68l60 80l47 71l43 95l-37 45l-92 -58l-72 -24l-65 -10h-95zM522 205l-84 -51
l-59 -78l-6 -88l30 -80l54 -53l104 -9l101 19l110 43z" />
    <glyph glyph-name="Ugrave" unicode="&#xd9;" horiz-adv-x="1569" 
d="M1163 258l-86 86l-37 -33l-67 -41l-72 -24l-65 -10h-95l-96 26l-94 31l-70 41l-82 57l-84 72l-65 82l-49 76l-25 69l-22 82l-7 82l7 82l22 94l51 92l49 72l58 47l88 57l100 35l103 15l75 -9l95 -6l55 -10l68 -8l61 -17v205h-954v217h1450v-217h-265v-315l-26 -82l-66 -10
l-100 16l-88 31l-101 20h-96l-88 -10l-49 -25l-64 -22l-59 -41l-57 -72l-37 -82l-17 -123l17 -114l43 -105l57 -71l66 -52l94 -30h94l103 16l59 31l37 57l-31 66l-16 57v82l22 57l45 31l43 16l66 15l90 -21l49 -35l35 -47l22 -90l-22 -106l-43 -72l-57 -67l317 -300l29 -61
l4 -68l-10 -30l-29 -41l-60 -33l-47 -8l-122 106l57 6l49 27l29 41l-92 90l-472 -340l60 -71l-133 -97h-172l-92 105l118 88l-293 334l-118 -88l-86 104l108 88h211l309 -350z" />
    <glyph glyph-name="Uacute" unicode="&#xda;" horiz-adv-x="1802" 
d="M1450 180l-444 2v-131h-127l-177 176v172h134l-5 203l-40 -51l-78 -43l-99 -29l-94 19l-65 24l-74 35l-78 74l-67 69l-60 88l-37 68l-22 90v113l22 88l62 88l75 51l123 35l121 8h289v176h-813v219l1800 -4v-217h-133v-1630h-82l-131 174v133zM1444 399v1100l-426 6
l2 -327l-12 -54l-47 -24l-111 2l-59 45l-99 10l-119 14l-106 -8l-74 -35l-59 -51l-37 -71l-6 -80v-70l18 -78l35 -59l49 -53l68 -45l125 -11l88 27l86 72l37 45l34 47h181l2 -404z" />
    <glyph glyph-name="Ucircumflex" unicode="&#xdb;" horiz-adv-x="1626" 
d="M119 1090v122l35 88l92 46l100 16l98 -6l101 -10l92 -19l78 -4v180h-705v217h1536v-217h-135v-1569h-88l-117 123v217l-135 -104l-170 -57l-133 -13l-90 11l-80 16l-82 37l-72 45l-71 59l-68 70l-41 68l-37 98v104l31 88l66 60l73 45l76 35l-53 18l-109 43l-84 55l-59 60
zM936 1499v-340h-168l-150 29l-126 6l-107 10l-80 -16l-47 -53v-70l35 -72l80 -51l100 -29l84 11l111 28l94 25l108 -217l-108 14l-113 -18l-104 -25l-72 -53l-53 -57l-29 -54l-6 -94l12 -76l41 -59l78 -55l127 -15l160 25l145 69l111 78l71 74l48 78l20 80v831z" />
    <glyph glyph-name="Udieresis" unicode="&#xdc;" horiz-adv-x="1569" 
d="M1176 233l-7 -73l-26 -49l-33 -80l-39 -54l-47 -69l-78 -78l-98 -63l-139 -43l-107 -17l-115 17l-77 18l-78 43l-68 61l-41 68l-24 80l6 82l24 78l54 79l61 50l107 55l-78 68l-58 57l-65 82l-49 76l-25 69l-22 82l-7 82l7 82l22 94l51 92l49 72l58 47l88 57l100 35
l103 15l75 -9l95 -6l55 -10l68 -8l61 -17v205h-954v217h1450v-217h-265v-325l-26 -72l-66 -10l-100 16l-88 31l-101 20h-96l-88 -10l-49 -25l-64 -22l-59 -41l-57 -72l-37 -82l-17 -123l17 -114l43 -105l57 -71l66 -52l94 -30h94l103 16l59 31l37 57l-31 66l-16 57v82l22 57
l45 31l43 16l66 15l90 -21l49 -35l35 -47l22 -90l-22 -106l-43 -72l-57 -67l317 -300l29 -61l4 -68l-10 -30l-29 -41l-60 -33l-47 -8l-122 106l57 6l49 27l29 41l-76 82zM645 262l-123 -57l-84 -51l-59 -78l-6 -88l30 -80l54 -53l104 -9l101 19l120 49l97 55l73 68l60 80
l47 71l43 95l-37 45l-92 -58l-72 -24l-65 -10h-95z" />
    <glyph glyph-name="Yacute" unicode="&#xdd;" horiz-adv-x="1563" 
d="M1225 -293v141l-88 -81l-66 -50l-72 -34l-67 -21l-66 -12h-75l-91 12l-61 27l-66 35l-71 59l-56 59l-49 70l-28 72l-7 61l7 55l24 60l47 61l47 41l74 35l105 31l94 10l63 -4l74 -10l86 -33l78 -45l67 -58l41 -41l56 -65v479l-43 -45l-47 -29l-54 -36l-61 -29l-109 -29
l-98 -14l-100 14l-82 29l-70 39l-69 41l-58 43l-53 51l-35 43l-31 51l-22 51l-12 50v73l22 72l29 51l41 49l96 74l-72 14l-65 6l-74 23l-72 35l-47 37l-35 51l-10 51l12 55l35 52l45 36l66 35l-264 -2v217h393l176 -217h-43l-63 -24l-66 -52l-45 -51l-12 -49l10 -61l35 -49
l53 -25l59 -10l78 12l58 23l45 28l49 35l192 -219h-88l-100 -25l-86 -35l-70 -43l-49 -61l-35 -55l-12 -74l12 -55l31 -58l53 -59l51 -35l119 -29h45l94 19l89 45l75 49l60 45l61 66l35 63l20 113v573l-211 -2l-176 217h744v-217h-131v-1906h-92zM766 193l-111 -29l-77 -53
l-41 -64l-9 -76l17 -65l28 -47l48 -47l81 -29l72 -10l90 12l68 29l69 34l52 35l43 31l34 33l39 37l31 41l-65 51l-70 37l-72 32l-102 35z" />
    <glyph glyph-name="Thorn" unicode="&#xde;" horiz-adv-x="1399" 
d="M-6 1720h1405v-217h-133v-1540h-82l-131 172v252h-502v-111l-37 -83l-92 -19l-76 27l-55 57l-58 66l-38 82v81l32 68l82 18h649l95 -65v500h-584v-129l-37 -82l-92 -9l-82 35l-49 47l-57 66l-48 82v92l41 55l88 29l725 -2l95 -64v375h-1059v217z" />
    <glyph glyph-name="germandbls" unicode="&#xdf;" horiz-adv-x="1241" 
d="M4 1720h1229v-217h-133v-1540h-82l-133 172v619h-488l-65 -35l-51 -53l-7 -80l25 -99l53 -106l88 -107l117 -127l102 -100l-67 4l-53 43l-70 53l-84 74l-68 60l-61 63l-55 62l-49 73l-33 70l-15 90l7 88l24 68l60 59l79 25l78 18l-71 45l-72 45l-45 72l-12 71v375
l-148 -2v217zM356 1499v-393l17 -76l37 -59l77 -41h392v569h-523z" />
    <glyph glyph-name="agrave" unicode="&#xe0;" horiz-adv-x="1452" 
d="M803 262l4 428l-47 -28l-58 -31l-51 -17l-73 -24l-91 2l-73 12l-56 23l-12 10l-59 41l-58 65l-55 82l-29 93v587h-133v219h1458v-219h-450l4 -1229l78 11l92 -17l98 -49l47 -51l54 -76l24 -125l-12 -69l-31 -74l-59 -62l-51 -34l-47 -39l-58 -35l-59 -25l-209 123l158 72
l86 45l75 53l43 76v92l-24 66l-51 35l-66 8l-84 -21l-96 -61l-84 -96l-74 -109l-37 -78l-159 107l30 69l29 54l-45 26l-55 21l-76 6l-68 -25l-37 -35l-12 -90l25 -69l45 -54l65 -47l66 -45l94 -53l-90 -4l-115 57l-84 53l-86 74l-43 88l-6 90l18 80l43 62l86 45h105l78 -25
l51 -20l43 -33l47 -39l57 64zM362 1503v-598l41 -74l101 -16l98 27l66 30l73 41l62 33v557h-441z" />
    <glyph glyph-name="aacute" unicode="&#xe1;" horiz-adv-x="1749" 
d="M6 1720h1759v-217h-485v-1222l102 10l111 -27l94 -43l47 -51l56 -76l24 -125l-12 -69l-33 -74l-59 -62l-49 -34l-50 -39l-55 -35l-59 -25l-209 123l158 72l84 45l75 53l45 76v92l-24 66l-51 35l-66 8l-86 -21l-94 -61l-86 -96l-72 -109l-37 -78l-162 107l33 69l27 54
l-43 26l-58 21l-75 6l-66 -25l-39 -35l-12 -90l27 -69l43 -54l65 -47l68 -45l94 -53l-92 -4l-113 57l-86 53l-84 74l-45 88l-6 90l18 80l45 62l86 45h103l80 -25l49 -20l45 -33l47 -39l57 64l72 53l80 28l-127 125v355h-621v-133h-174l-131 176v129h88v577h-221v217z
M446 1499v-569h613v569h-613z" />
    <glyph glyph-name="acircumflex" unicode="&#xe2;" 
d="M1001 2576l70 -8l80 -28l72 -54l63 -69l47 -82l2 -66l-75 66l-72 63l-98 35l-89 -6l-71 -55l-45 -91l-15 -116l15 -113l39 -102l63 -107l84 -104l-104 -2l-70 71l-53 72l-37 70l-39 63l-35 92l-18 97v79l18 99l27 53l53 61l59 46l70 18z" />
    <glyph glyph-name="atilde" unicode="&#xe3;" 
d="M-373 -63h115l444 -523h-157l-293 346l-322 -387h-262z" />
    <glyph glyph-name="adieresis" unicode="&#xe4;" horiz-adv-x="1456" 
d="M0 1720h1450v-217h-707v-526l52 53l41 53l49 54l67 39l78 34h88l92 -34l60 -46l51 -53l43 -63l29 -90l18 -123l-18 -82l-41 -80l-64 -72l-65 -53l-70 -27l-158 144l66 24l63 29l68 53l43 54l6 79l-12 82l-19 62l-39 55l-47 43l-55 10l-61 -16l-62 -29l-55 -53l-55 -72
l-62 -63l-47 41l-41 -60l-65 -69l-66 -53l-74 -39v-47l86 -113l72 -80l80 -72l84 -69l94 -64l86 -53l92 -43l109 -39v-88l-103 35l-143 63l-123 62l-156 90l-137 90l-96 70l-88 71l-62 64l-43 53l-40 63l-39 60l-31 74l-17 82l5 69l22 72l43 43l70 28h69l78 -28l45 -43h90
v444h-528v217z" />
    <glyph glyph-name="aring" unicode="&#xe5;" horiz-adv-x="1456" 
d="M719 918l6 14l-39 -62l-65 -69l-66 -53l-74 -39v-47l86 -113l72 -80l80 -72l84 -69l94 -64l86 -53l92 -43l109 -55v-72l-103 35l-143 63l-123 62l-156 90l-137 90l-96 70l-88 71l-62 64l-43 53l-40 63l-39 60l-31 74l-17 82l5 69l22 72l43 43l70 28h69l78 -28l86 -53
l49 10v444h-528v217h1450v-217h-707v-409l60 71l76 35l92 19l98 -19l68 -43l67 -63l49 -54l54 -79l39 -72l59 -107l12 -108l-71 108l-76 107l-66 82l-74 69l-81 37l-72 6l-80 -22l-49 -37l-19 -82l25 -88l57 -45l82 -14l82 43v-217l-45 -43l-78 -11l-67 11l-70 43l-47 63
l-31 64l-24 67z" />
    <glyph glyph-name="ae" unicode="&#xe6;" horiz-adv-x="1884" 
d="M6 1720l1878 4v-221h-649v-311l57 8h78l92 -35l60 -37l53 -38l41 -37l39 -54l24 -53l17 -61l6 -62v-75l-23 -93l-47 -65l-41 -68l43 -26l52 -52l24 -53l23 -57l12 -70l-12 -82l-23 -82l-31 -59l-47 -72l-57 -69l-59 -60l-82 -69l-60 -39l-190 198l61 19l94 35l64 39
l59 40l60 66l47 70l22 84l2 55l-14 68l-35 49l-59 -62l-82 -69l-62 -37l-188 198l59 19l95 35l63 39l60 40l61 66l47 70l23 84l2 53l-17 70l-35 59l-47 55l-61 37l-76 10l-63 -10l-60 -25l-63 -57l-76 -84l-92 -115l-68 -83l-192 112l176 176l-45 25l-43 22l-74 33h-84
l-70 -4l-69 -29l-64 -22l-55 -41l-47 -43l-27 -47l-18 -92v-76l10 -72l21 -72l41 -96l63 -90l80 -82l100 -88l94 -61l89 -54l94 -55l-84 2l-127 53l-84 39l-88 50l-76 45l-45 28l-19 -92v-76l11 -71l20 -74l41 -94l64 -90l80 -82l100 -88l90 -64l92 -53l94 -53l-84 2
l-127 53l-84 39l-90 49l-84 61l-88 72l-80 76l-53 76l-43 65l-35 76l-28 76l-6 84l6 108l28 90l41 64l-32 57l-43 66l-35 76l-29 75l-2 86l2 107l29 90l41 63l53 60l57 41l84 45l117 24l104 -8l93 -6l118 -47l86 -49l78 -53l39 47l33 39v327h-1014v217z" />
    <glyph glyph-name="ccedilla" unicode="&#xe7;" horiz-adv-x="1212" 
d="M1223 1505l-111 -2l-133 131v86l244 4v-219zM1200 772h-131l-420 223l-147 -75l-158 -84l-149 -88l-123 176l168 71l135 64l104 53l-92 25l-49 39l-51 53l-29 78v73l23 72l75 53l-346 -2v217h592l66 -37l63 -45l66 -63l73 -96l37 -117v-80l-24 -72l-54 -75l-75 -66
l340 -186l106 -4v-107zM578 1505l-86 -37l-58 -69l-24 -64v-71l24 -35l58 -37l92 -16l90 34l57 43l17 21l43 43l18 53v64l-25 45l-43 26h-163z" />
    <glyph glyph-name="egrave" unicode="&#xe8;" horiz-adv-x="1563" 
d="M10 1720h592l66 -37l63 -45l66 -63l73 -96l37 -117v-80l-24 -72l-54 -75l-75 -66l446 -244v678h-88l-133 131v86h567v-217h-131v-1540h-82l-133 172v567l-551 293l-147 -75l-158 -84l-149 -88l-123 176l168 71l135 64l104 53l-92 25l-49 39l-51 53l-29 78v73l23 72l75 53
l-346 -2v217zM578 1505l-86 -37l-58 -69l-24 -64v-71l24 -35l58 -37l92 -16l90 34l57 43l17 21l43 43l18 53v64l-25 45l-43 26h-163z" />
    <glyph glyph-name="eacute" unicode="&#xe9;" horiz-adv-x="1563" 
d="M926 844l-277 151l-147 -75l-158 -95l-149 -77l-123 176l168 71l135 64l104 53l-92 25l-49 39l-51 53l-29 78v73l23 72l75 53l-346 -2v217h592l66 -37l63 -45l66 -63l73 -96l37 -117v-80l-24 -72l-54 -75l-75 -66l446 -244v678h-88l-133 131v86h567v-217h-131v-1540h-82
l-133 184v269l-47 -117l-37 -53l-47 -64l-63 -43l-74 -26l-76 -9h-65l-58 25l-65 45l-43 62l-29 81v89l18 63l35 63l-473 -268l-98 133zM1075 762l-334 -176l-28 -90v-80l18 -64l35 -53l43 -25h86l100 37l60 41l47 54l39 55l30 53l21 64l8 53v71zM578 1505l-86 -37l-58 -69
l-24 -64v-71l24 -35l58 -37l92 -16l90 34l57 43l17 21l43 43l18 53v64l-25 45l-43 26h-163z" />
    <glyph glyph-name="ecircumflex" unicode="&#xea;" horiz-adv-x="2019" 
d="M889 870l-234 123l-147 -75l-158 -87l-149 -88l-123 177l168 73l135 62l104 55l-92 25l-49 36l-51 54l-29 80v71l23 74l75 53l-346 2v211h592l66 -37l63 -45l66 -61l74 -98l36 -117v-78l-24 -74l-53 -76l-76 -65l465 -256l86 45l47 16v633h-176l-133 131v86h964v-217
h-440l2 -633l86 -16l96 -39l80 -53l51 -53l25 -54l22 -77v-91l-16 -81l-39 -72l-72 -88l-88 -78l-92 -74l-53 -35l-258 134l86 28l43 15l74 45l65 53l70 47l59 59l43 82l8 74l-20 59l-35 54l-61 47l-70 16h-80l-59 -18l-58 -27l-59 -53l-63 -72l-48 -70l-43 -63l-129 98
l43 82l80 88l-86 45l-49 19l-61 -10l-43 -19l-54 -10l-88 -43l-55 -45l-49 -43l-35 -82l-6 -88l12 -80l35 -82l49 -72l80 -88l70 -63l71 -53l66 -54l51 -26l53 -29l6 -41l-122 41l-97 55l-98 54l-72 43l-57 47l-86 69l-55 54l-47 63l-39 74l-25 71l-10 99l10 88l31 78l45 47
l65 53l86 35l95 26h135zM584 1503l-86 -39l-58 -67l-24 -64v-73l24 -35l58 -37l92 -17l90 35l57 45l17 19l43 45l18 53v62l-24 45l-43 28h-164z" />
    <glyph glyph-name="edieresis" unicode="&#xeb;" horiz-adv-x="1534" 
d="M1204 551l-4 151l-551 293l-147 -75l-158 -84l-149 -88l-123 176l168 71l135 64l104 53l-92 25l-49 39l-51 53l-29 78v73l23 72l75 53l-346 -2v217h592l66 -37l63 -45l66 -63l73 -96l37 -117v-80l-24 -72l-54 -75l-75 -66l446 -244v678h-88l-133 131v86h567v-217h-131
v-1540h-82l-133 172l4 182l-88 -81l-67 -50l-72 -34l-66 -19l-67 -14h-76l-90 14l-60 25l-67 35l-72 59l-53 59l-51 70l-29 74l-6 59l6 55l27 62l47 59l47 41l72 35l104 31l94 10l64 -4l76 -8l84 -35l79 -45l66 -56l41 -41zM743 662l-110 -29l-78 -53l-41 -64l-6 -76l14 -65
l29 -47l47 -47l82 -29l74 -10l88 14l69 27l68 34l51 35l45 33l35 31l37 39l31 41l-66 49l-70 39l-71 30l-101 35zM578 1505l-86 -37l-58 -69l-24 -64v-71l24 -35l58 -37l92 -16l90 34l57 43l17 21l43 43l18 53v64l-25 45l-43 26h-163z" />
    <glyph glyph-name="igrave" unicode="&#xec;" horiz-adv-x="1411" 
d="M12 1720h1317v-217h-176l4 -526l-20 -70l-54 -53l-110 -45l-211 -8l-90 -10l-80 -19l-84 -24l-57 -29l-66 -53l-39 -45l-31 -78v-64l19 -73l51 -72l66 -43l141 -17l98 17l84 26l111 56l92 61l82 53l94 86l168 -186l-74 -43l-96 -63l-80 -45l-110 -35l-70 -33l-78 -10
l-80 -11l-100 -8l-84 8l-98 21l-78 33l-90 55l-72 61l-66 89l-32 73l-7 99l27 61l41 70l55 47l68 35l88 24l-76 29l-41 35l-39 39l-41 55l-24 57l-19 64v409h-133v217zM498 1499l438 -493l-4 493h-434zM365 1380v-366l14 -27l35 -26h354z" />
    <glyph glyph-name="iacute" unicode="&#xed;" horiz-adv-x="1212" 
d="M860 227l-98 -45l-94 -8l-107 -14l-74 10l-81 18l-68 35l-76 53l-61 64l-56 88l-28 74l-4 96l20 64l35 69l49 47l57 35l60 25l-72 32l-39 35l-37 37l-39 57l-30 60l-11 53l-2 393h-116l2 211h1216l4 -219l-168 2v-506l-18 -69l-51 -47l-103 -41l-151 -11l-92 -10l-82 -6
l-78 -18l-61 -35l-44 -37l-47 -70l-24 -86v-61l14 -74l45 -72l56 -45l120 -14l82 14l92 33l74 43l80 64l66 53l86 92l141 -170l-72 -74l-63 -53l2 -950h-72l-78 88v225l-61 -82l-53 -53l-43 -35l-68 -41l-135 -18l-94 12l-60 29l-57 34l-60 64l-45 72l-18 80v100l18 90
l86 104l88 54l117 26l123 -6l78 -29l94 -67l86 -90v321zM432 1505l404 -485v485h-404zM315 1405v-371l9 -26l34 -25l320 4zM479 -35l-63 -28l-47 -54l-29 -43l-12 -63l6 -88l22 -35l41 -53l64 -39h94l104 41l68 51l70 63l59 68v55l-47 43l-53 29l-70 35l-96 28z" />
    <glyph glyph-name="icircumflex" unicode="&#xee;" horiz-adv-x="1456" 
d="M0 1720h1450v-217h-266v-516l-19 -63l-47 -35l-123 -45l105 -29l78 -43l51 -45l35 -43l36 -82l21 -98l-6 -98l-51 -78l-54 -54l-69 -53l-121 -63l-115 -39h-131l-276 20l-129 54l-93 63l-71 72l-58 88l-30 98l12 125l39 88l53 64l94 63l117 43h-94l-80 27l-53 37l-45 45
l-27 100v397h-133v217zM528 1499l437 -485v485h-437zM352 1456l-2 -387v-55l31 -37l57 -6h365zM549 762l-105 -43l-75 -64l-41 -88l-13 -88l19 -73l35 -72l51 -53l147 -45l176 10l154 45l86 53l66 62l51 73l24 78l-6 82l-37 80l-53 63l-108 33l-111 -6l-123 -18z" />
    <glyph glyph-name="idieresis" unicode="&#xef;" horiz-adv-x="1669" 
d="M-4 1720h1671v-217h-133v-1540h-82l-131 172l2 271l-418 -232l-98 125l516 268v64l-70 53l-77 35l-99 29l-84 -21l-82 -25l-61 -47l-43 -53l-123 125l88 55l98 43l84 29h105l110 -45l97 -53l57 -47l-2 264h-754l-6 -76l-29 -82l-51 -59l-53 -29l-70 -25l-18 -28l12 -64
l33 -96l59 -108l82 -107l78 -88l86 -82l76 -70l117 -100h-82l-191 145l-129 117l-96 96l-74 80l-69 72l-47 74l-43 78l-25 88l-8 53v53l14 55l31 54l31 37l67 34l88 19v489h-354v217zM569 1499v-348h619l127 -90v438h-746z" />
    <glyph glyph-name="eth" unicode="&#xf0;" horiz-adv-x="1669" 
d="M760 586l557 239v146l-750 2l-6 -76l-29 -82l-51 -59l-53 -29l-70 -25l-18 -28l12 -64l33 -96l59 -108l82 -107l78 -88l86 -82l76 -70l117 -100h-82l-152 117l-168 145l-96 96l-74 80l-69 72l-47 74l-43 78l-25 88l-8 53v53l14 55l31 54l31 37l67 34l88 19v489h-354v217
h1671v-217h-133v-1540h-82l-131 172l2 504l-393 -170l37 -53l32 -64v-61l-38 -55l-111 -35l-102 35l-74 63l-31 53l-12 82l12 53l35 56zM569 1499v-348h619l117 -82v428z" />
    <glyph glyph-name="ntilde" unicode="&#xf1;" horiz-adv-x="1669" 
d="M643 469l674 356v146l-750 2l-6 -76l-29 -82l-51 -59l-53 -29l-70 -25l-18 -28l12 -64l33 -96l59 -108l82 -107l78 -88l86 -82l76 -70l117 -100h-82l-152 117l-168 145l-96 96l-74 80l-69 72l-47 74l-43 78l-25 88l-8 53v53l14 55l31 54l31 37l67 34l88 19v489h-354v217
h1671v-217h-133v-1540h-82l-131 172l2 504l-563 -311zM569 1499v-348h619l117 -82v428z" />
    <glyph glyph-name="ograve" unicode="&#xf2;" horiz-adv-x="1505" 
d="M4 1720h1493v-217h-309v-352h-660l-90 -14l-39 -35v-62l27 -69l49 -39l53 -25h332l86 -10l62 -33l61 -73l31 -54l12 -63l-18 -72l-41 -53l-64 -45l-84 -53l-51 -35l-31 -43v-45l6 -54l37 -38l52 -9l65 19l70 35l59 36l59 56l52 61l37 62l104 -187l-43 -41l-80 -57
l-90 -53l-45 -11l-86 -8h-68l-16 8l-88 46l-53 34l-52 54l-24 53l-12 72l6 63l49 74l57 53l99 53l83 53l-6 60l-37 29h-436l-65 -29l-43 -35l-62 -78l-30 -71l-7 -109l25 -72l41 -88l70 -73l86 -78l84 -64l86 -53l36 -18l80 -35l101 -35l280 -64l-53 -18l-180 18l-209 64
l-225 78l-105 55l-80 53l-88 72l-71 82l-52 69l-28 54l-21 71l-10 70l6 74l18 53l41 72l64 59l86 49l123 15l-111 82l-73 63l-56 82l-20 78l20 51l37 39l80 33l90 20l586 -4v180h-969v217z" />
    <glyph glyph-name="oacute" unicode="&#xf3;" horiz-adv-x="1481" 
d="M596 772l-74 19l-65 -29l-43 -35l-62 -78l-30 -71l-7 -109l25 -72l41 -88l70 -73l86 -78l84 -64l86 -53l36 -18l80 -35l101 -35l280 -64l-53 -18l-180 18l-209 64l-225 78l-105 55l-80 53l-88 72l-71 82l-52 69l-28 54l-21 71l-10 70l6 74l18 53l41 72l64 59l86 49
l123 15l-111 82l-73 63l-56 82l-20 78l20 51l37 39l80 33l90 20l586 -4v180h-969v217h1493v-217h-309v-352h-660l-90 -14l-39 -35v-62l27 -69l49 -39l53 -25h445l102 -18l76 -35l66 -45l57 -72l20 -71v-670h-84l-82 96l2 510l-6 53l-24 37l-53 45l-58 11v-492l-43 -88
l-80 -39l-110 29l-84 63l-51 70l-25 71v410zM731 772v-444l25 -47l51 -17l35 17l12 63v428h-123z" />
    <glyph glyph-name="ocircumflex" unicode="&#xf4;" horiz-adv-x="1481" 
d="M621 522l507 -2l2 82l-6 53l-37 64l-73 53l-129 10h-369l-59 -20l-43 -35l-62 -78l-30 -71l-7 -109l25 -72l41 -88l70 -73l86 -78l84 -64l86 -53l36 -18l80 -35l101 -35l280 -64l-53 -18l-180 18l-209 64l-225 78l-105 55l-80 53l-88 72l-71 82l-52 69l-28 54l-21 71
l-10 70l6 74l18 53l41 72l64 59l86 49l123 15l-111 82l-73 63l-56 82l-20 78l20 51l37 39l80 33l90 20l586 -4v180h-969v217h1493v-217h-309v-352h-660l-90 -14l-39 -35v-62l27 -69l49 -39l53 -25h445l102 -18l76 -35l66 -45l57 -72l20 -71v-670h-84l-82 96l2 270h-348v-126
l-51 -43l-80 8l-84 63l-51 64l-24 53l6 80l45 43z" />
    <glyph glyph-name="otilde" unicode="&#xf5;" horiz-adv-x="1667" 
d="M784 1323v180l-784 2v215h1661v-217h-133v-1540h-82l-131 172v264h-449v-131h-125l-133 176v129h88l-4 209h-123l-59 -20l-43 -35l-61 -78l-31 -71l-6 -109l24 -72l41 -88l70 -73l86 -78l84 -64l86 -53l37 -18l80 -35l100 -35l280 -64l-53 -18l-180 18l-209 64l-225 78
l-105 55l-79 53l-89 72l-71 82l-51 69l-27 54l-23 71l-10 70l6 74l19 53l41 72l63 59l86 49l123 15l-111 82l-71 63l-58 82l-18 78l18 51l37 39l80 33l90 20zM1006 1147l-422 4l-92 -14l-37 -35v-62l24 -69l49 -39l56 -25l288 -22v-307h435v921h-301v-352z" />
    <glyph glyph-name="odieresis" unicode="&#xf6;" horiz-adv-x="1778" 
d="M842 801h-273l-59 -39l-43 -25l-61 -88l-31 -71l-6 -109l24 -72l41 -88l70 -73l86 -78l84 -64l86 -53l37 -18l80 -35l100 -35l280 -64l-53 -18l-180 18l-209 64l-225 78l-105 55l-79 53l-89 72l-71 82l-51 69l-27 54l-23 71l-10 70l6 74l19 53l41 72l63 59l86 49l123 15
l-111 82l-71 63l-58 82l-18 78l18 51l37 39l80 33l90 20l344 -4v180l-784 2v215h1767v-215l-151 -2v-1540h-82l-131 172l2 352l-64 -106l-96 -90l-74 -45l-110 -35h-129l-90 25l-111 55l-82 71l-71 99l-62 96v74l133 18l129 25l58 35l41 28v45zM829 907l60 -43l43 -63
l14 -53l-14 -74l-49 -53l-74 -54l-90 -35l-80 -18l41 -63l76 -54l92 -16l117 -8l90 24l73 43l97 74l102 125l35 80l37 145l-2 635h-391v-352l-422 4l-92 -14l-37 -35v-62l24 -69l49 -39l56 -25h245z" />
    <glyph glyph-name="divide" unicode="&#xf7;" horiz-adv-x="1534" 
d="M983 782h-467l-59 -20l-43 -35l-62 -78l-30 -71l-7 -109l25 -72l41 -88l70 -73l86 -78l84 -64l86 -53l36 -18l80 -35l101 -35l280 -64l-53 -18l-180 18l-209 64l-225 78l-105 55l-80 53l-88 72l-71 82l-52 69l-28 54l-21 71l-10 70l6 74l18 53l41 72l64 59l86 49l123 15
l-111 82l-73 63l-56 82l-20 78l20 51l37 39l80 33l90 20l586 -4v180h-969v217h1536v-215l-352 -2v-352h-660l-90 -14l-39 -35v-62l27 -69l49 -39l53 -25h418l94 -28l47 -43l31 -54l25 -45l49 19l90 -13l74 -34l43 -37l28 -45l31 -54l12 -53l9 -45l2 -59l-19 -82l-39 -78
l-47 -74l-71 -82l-48 -43l-147 170l68 25l61 45l72 61l37 52l45 65l12 45v64l-25 43l-57 28l-66 17l-73 -35l-66 -51l-41 -66l-41 -74l-37 -77l-114 63l39 90l37 70l-48 35l-71 10l-88 -35l-52 -35l-30 -53l-21 -63l11 -93l22 -59l47 -53l51 -45l47 -33l129 -86h-69l-66 29
l-121 71l-75 64l-84 98l-23 88v78l25 82l51 53l78 55l86 15l96 -6l57 -19l48 -35l34 -16l33 35l41 35l-22 53z" />
    <glyph glyph-name="oslash" unicode="&#xf8;" horiz-adv-x="1374" 
d="M1020 782h-504l-59 -20l-43 -35l-62 -78l-30 -71l-7 -109l25 -72l41 -88l70 -73l86 -78l84 -64l86 -53l36 -18l80 -35l101 -35l137 -39l90 -43l-180 18l-209 64l-225 78l-105 55l-80 53l-88 72l-71 82l-52 69l-28 54l-21 71l-10 70l6 74l18 53l41 72l64 59l86 49l123 15
l-111 82l-73 63l-56 82l-20 78l20 51l37 39l80 33l90 20l586 -4v180h-969v217h1360v-215l-176 -2v-352h-660l-90 -14l-39 -35v-62l27 -69l49 -39l53 -25h445l139 -10l45 -18l21 -35l6 -62v-805h-97l-67 99v135l-55 -29l-74 -8h-68l-80 19l-98 53l-53 45l-49 61l-27 82v88
l33 64l53 45l49 24l56 19h81l84 -19l66 -34l82 -64v225zM750 578l-48 -21l-43 -43l-38 -63l12 -70l33 -53l41 -37l81 -27l78 17l45 18l60 35l49 28v117l-49 35l-74 35l-84 37z" />
    <glyph glyph-name="ugrave" unicode="&#xf9;" horiz-adv-x="782" 
d="M455 -47q-27 -33 -51 -46t-60 -13q-54 0 -90.5 38.5t-36.5 96.5q0 63 42 102t114 39q43 0 79 -20q37 -18 66.5 -53t45.5 -82q8 -25 12 -48t4 -53q0 -92 -51.5 -175.5t-137.5 -135.5q-46 -28 -89.5 -43t-90.5 -15v45q104 28 180 116t76 181q0 27 -12 66zM229 872
q0 55 41.5 94.5t98.5 39.5q52 0 92.5 -39.5t40.5 -94.5q0 -54 -40 -94.5t-93 -40.5q-57 0 -98.5 39t-41.5 96z" />
    <glyph glyph-name="uacute" unicode="&#xfa;" horiz-adv-x="807" 
d="M428 -37q-27 -36 -51 -48.5t-60 -12.5q-54 0 -89 39t-35 96q0 64 41.5 103.5t111.5 39.5q58 0 105.5 -33.5t75.5 -92.5q14 -30 21 -60.5t7 -69.5q0 -92 -51.5 -175t-137.5 -136q-45 -28 -88.5 -42.5t-91.5 -14.5v45q68 17 126.5 64.5t93 109t34.5 121.5q0 35 -12 67z" />
    <glyph glyph-name="ucircumflex" unicode="&#xfb;" horiz-adv-x="700" 
d="M199 66q0 54 41 93.5t98 39.5q51 0 91 -40t40 -93q0 -55 -39.5 -95.5t-91.5 -40.5q-58 0 -98.5 40t-40.5 96z" />
    <glyph glyph-name="udieresis" unicode="&#xfc;" horiz-adv-x="1346" 
d="M573 1837h187l96 -29l62 -34l77 -54l58 -92l30 -106l13 -123l-19 -135l-30 -88l-86 -146l-105 -166l-74 -127l-57 -129v-309h-127v303l27 117l20 72l27 73l37 78l32 72l33 88l33 98l12 82l12 98l-12 154l-51 88l-82 45h-135l-88 -88v-92l45 -43l18 -92l-18 -82l-45 -45
l-98 -25l-74 25l-41 39l-21 82l7 77l38 74l13 125l41 88l51 64l78 45zM598 119h170l45 -43v-170l-45 -45h-170l-43 45v170z" />
    <glyph glyph-name="yacute" unicode="&#xfd;" 
d="M-813 -420l86 23l61 -23l62 -41l26 -49l15 -76l-6 -82l-45 -53l-41 -41l-88 -10l-70 22l-43 41l-29 50l-6 73v64l35 61z" />
    <glyph glyph-name="thorn" unicode="&#xfe;" 
d="M-614 3226h215v-791h-215v791z" />
    <glyph glyph-name="ydieresis" unicode="&#xff;" 
d="M-1006 -700h656v-213h-656v213z" />
    <glyph glyph-name="ring" unicode="&#x2da;" 
d="M-1528 2617l271 4l122 -24l86 -47l70 -47l49 -56l45 -53l31 -47l31 -66l32 -75l19 -66l18 -88l13 -104v-211h-113v100l-2 105l-16 129l-29 94l-31 69l-45 64l-47 47l-51 35l-62 24l-51 13h-188zM-924 1737h-106l-35 71l-51 82l-82 88l-66 58l-94 43l-82 16h-239l-146 211
h316l129 -35l86 -47l69 -53l47 -41l43 -53l41 -60l29 -35l41 -67l47 -76zM-485 2533l98 -6l70 -41l67 -73l41 -74l35 -117h-37l-47 59l-59 66l-41 29l-70 18l-59 -6l-52 -29l-30 -37l-29 -57l-20 -65l-7 -80l17 -82l28 -60l35 -71l43 -52l51 -65l58 -53h-127l-111 118
l-78 117l-34 113l-13 96l13 100l22 84l37 56l51 53l64 41z" />
    <glyph glyph-name="c420" unicode="&#x2044;" horiz-adv-x="1587" 
d="M-12 1720h393l176 -217h-43l-63 -24l-66 -52l-45 -51l-12 -49l10 -61l35 -49l53 -25l59 -10l78 12l58 23l45 28l49 35l192 -219h-88l-100 -25l-86 -35l-70 -43l-49 -61l-35 -55l-12 -74l12 -55l31 -58l53 -59l51 -35l119 -29h45l94 19l89 45l75 49l60 45l61 66l35 63
l31 123v561h-222l-176 217h744v-217h-131v-1499h-82l-133 148v403l-41 -39l-47 -29l-54 -36l-61 -29l-109 -29l-98 -14l-100 14l-82 29l-70 39l-69 41l-58 43l-53 51l-35 43l-31 51l-22 51l-12 50v73l22 72l29 51l41 49l96 74l-72 14l-65 6l-74 23l-72 35l-47 37l-35 51
l-10 51l12 55l35 52l45 36l70 29l-268 4v217z" />
    <glyph glyph-name="c421" unicode="&#x2212;" horiz-adv-x="543" 
d="M164 1724l82 -4l129 -133v-1583h-82l-129 131v1589z" />
  </font>
</defs>
</svg>
